<svg width="7382" height="2316" viewBox="0 0 7382 2316" fill="none" xmlns="http://www.w3.org/2000/svg">
<g clip-path="url(#clip0_304_52)">
<mask id="mask0_304_52" style="mask-type:alpha" maskUnits="userSpaceOnUse" x="2257" y="84" width="2765" height="2136">
<path d="M3164.7 2060.02L3310.76 2023.45L3371.63 2011.26L3639.42 2047.83L3980.24 2072.21L4199.34 2218.48L4424.53 2157.54L4783.61 1846.71L5008.8 1383.51L5020.97 1048.29L4929.68 719.179L4734.92 463.2L4418.44 225.505L3949.81 85.3262L3548.12 121.895L3152.53 195.031L2848.22 243.789L2422.19 426.631L2288.29 548.526L2257.86 633.852L2294.38 737.463L2373.5 749.653L2458.71 713.084L2738.67 572.905L2568.26 908.116L2495.22 1030.01L2410.02 1145.81L2403.93 1279.89L2501.31 1365.22L2653.46 1346.94L2836.05 1279.89L3103.84 1292.08H3225.56L3207.3 1450.55L3091.66 1602.92L2994.29 1700.43L2951.68 1877.18L3018.63 2011.26L3164.7 2060.02Z" fill="#D9D9D9" stroke="black"/>
</mask>
<g mask="url(#mask0_304_52)">
<rect x="1868.35" y="-511.958" width="3907.3" height="2888.91" fill="white"/>
</g>
<mask id="path-3-inside-1_304_52" fill="white">
<path fill-rule="evenodd" clip-rule="evenodd" d="M3661.27 66.6261C3566.86 77.7755 3446.27 104.59 3345.83 136.787C3307.28 149.141 3238.94 162.63 3193.96 166.76C3065.33 178.565 2839.93 226.626 2703.95 271.223C2356.51 385.198 2171.69 563.331 2247.85 710.824C2269.42 752.579 2320.27 780.634 2374.4 780.634C2417.38 780.634 2501.9 740.494 2604.13 671.561C2638.67 648.268 2669.12 631.386 2671.78 634.053C2674.45 636.709 2665.48 654.574 2651.85 673.737C2617.33 722.278 2558.82 842.582 2532.57 918.966C2517.4 963.143 2496.32 995.292 2464.82 1022.29C2338.77 1130.35 2338.15 1312.27 2463.6 1379.03C2531.89 1415.38 2612.06 1408.11 2705.35 1357.15C2753.45 1337.77 2780.54 1326.87 2829.46 1313.41C2829.79 1313.33 2830.13 1313.27 2830.47 1313.25C2872.03 1310.52 2901.84 1310.99 2960.3 1313.28C3056.68 1313.09 3150.01 1317 3167.67 1321.95C3196.56 1330.04 3199.8 1336.2 3199.8 1382.98C3199.8 1439.53 3169.48 1482.53 3030.6 1622.98C2955.97 1698.44 2920.03 1771.18 2919.67 1847.43C2919.33 1919.98 2935.28 1958.95 2987.23 2012.49C3066.02 2093.69 3207.83 2111.44 3319.98 2054.15C3371.29 2027.93 3382.12 2028.66 3521.08 2067.54C3594.81 2088.18 3653.29 2094.6 3798.02 2097.96L3979.49 2102.17C3980.78 2102.2 3982 2102.73 3982.91 2103.64L4033.7 2154.49C4127.83 2248.77 4274.7 2267.8 4404.42 2202.54C4484.24 2162.4 4650.72 2028.8 4739.93 1933.28C4875.59 1788.07 4973.44 1612.61 5023.94 1424.09C5060.64 1287 5060.53 1052.64 5023.67 915.176C4994.85 807.671 4937.25 680.359 4874.86 586.238C4712.99 342.016 4417.66 153.002 4092.09 85.2396C3987.32 63.4438 3768.39 53.9792 3661.27 66.6261ZM3678.79 121.145C3330.56 171.089 3070.45 291.978 2861.93 500.787C2734.68 628.215 2646.81 766.162 2587.5 931.601C2563.24 999.282 2545.34 1028.02 2505.62 1063.03C2371.76 1181.03 2403.7 1342.2 2560.96 1342.2C2606.84 1342.2 2641.98 1331.96 2707.6 1299.5C2793.66 1256.91 2794.41 1256.78 2953.05 1255.72C3040.57 1255.13 3136.42 1258.77 3166.06 1263.8C3218.39 1272.69 3220.36 1271.93 3234.58 1237.57C3247.88 1205.4 3246.06 1197.13 3214.55 1146.42C3162.95 1063.41 3149.24 1020.31 3156.68 964.699C3172.52 846.454 3305.62 812.795 3518.26 873.28C3580.52 890.993 3619 892.924 3781.7 886.489C3856.09 886.027 3897.76 884.517 3970.13 879.123C3971.46 879.024 3972.72 878.396 3973.58 877.382L4020.48 822.424C4082.62 749.631 4130.27 728.666 4194.32 745.934C4305.94 776.036 4410.68 934.643 4468.35 1160.86C4495.21 1266.2 4497.71 1294.75 4493.48 1447.49C4489.94 1574.95 4483.21 1633.14 4466.4 1681.48L4445.24 1742.3C4444.51 1744.39 4442.5 1745.76 4440.29 1745.65L4352.64 1741.61C4227.71 1735.85 4166.28 1755.03 4098.18 1821.1C3982.44 1933.41 3999.08 2080.31 4135.43 2149.97C4194.68 2180.23 4298.55 2180.04 4365.68 2149.53C4458.77 2107.22 4589.54 2006.71 4692.31 1898.45C4880.87 1699.86 4980.22 1480.26 4995.26 1228.86C5008.36 1009.78 4956.38 815.311 4835.67 631.807C4653.67 355.178 4346.49 172.996 3982.55 125.848C3898.15 114.909 3739.39 112.464 3678.79 121.145ZM2989.04 254.423C2659.17 324.888 2450.55 416.014 2338.19 538.704C2280.04 602.208 2271.39 658.166 2313.26 700.096C2350.32 737.206 2412.33 723.67 2526.56 653.521C2579.29 621.137 2649.83 581.933 2683.31 566.396C2719.23 549.737 2783.69 500.19 2840.57 445.531C2893.57 394.581 2978.75 325.426 3029.86 291.837C3132.34 224.485 3131.75 223.935 2989.04 254.423ZM3026.73 1722.31C2948.78 1821.54 2970.47 1945.85 3075.03 1999.27C3111.86 2018.09 3137.82 2022.22 3195.89 2018.52C3301.37 2011.8 3305.91 1999.21 3223.81 1941.21C3140.45 1882.36 3097.19 1828.28 3070.68 1749.86L3053.91 1700.25C3052.64 1696.48 3047.69 1695.63 3045.24 1698.76L3026.73 1722.31ZM-1861.63 4415.69C-1847.09 4418.48 -1826.06 4418.38 -1814.89 4415.45C-1803.73 4412.53 -1815.62 4410.23 -1841.32 4410.36C-1867.02 4410.49 -1876.16 4412.89 -1861.63 4415.69ZM-1733.25 4416.04C-1699.51 4418.4 -1644.31 4418.4 -1610.59 4416.04C-1576.85 4413.67 -1604.45 4411.74 -1671.92 4411.74C-1739.39 4411.74 -1766.98 4413.67 -1733.25 4416.04ZM3261.89 1395.24C3273.48 1270.87 3329.48 1164.15 3445.06 1046.17L3537.52 951.769C3538.46 950.812 3539.74 950.271 3541.08 950.268L3712.58 949.817C3712.65 949.817 3712.65 949.816 3712.72 949.819C3714.96 949.907 3820.39 954.013 3887.99 949.817C3931.28 947.13 3955.89 956.874 3998.5 938.589C4041.1 920.305 4047.75 892.575 4072.34 852.858C4073.16 851.722 4073.97 850.601 4074.77 849.495C4103.21 810.154 4117.42 790.483 4181.89 816.29C4264.43 852.461 4306.48 891.161 4346.21 986.943C4350.14 997.23 4353.89 1006.99 4357.5 1016.36C4384.86 1087.49 4403.27 1135.36 4419.25 1212.45C4433.14 1271.15 4435.68 1294.83 4439.31 1328.62C4439.91 1334.24 4440.55 1340.14 4441.27 1346.53L4441.27 1347V1347.03C4441.55 1370.11 4441.71 1383.29 4441.27 1406.55L4433.8 1500.14C4429.69 1551.62 4421.22 1612.16 4414.98 1634.68L4404.65 1671.97C4404.05 1674.13 4402.09 1675.63 4399.84 1675.64L4307 1675.84C4231.32 1676 4198.96 1681.64 4157.79 1701.86C4034.06 1762.6 3959.18 1866.63 3959.18 1977.8V2030.37C3959.18 2033.2 3956.84 2035.47 3954.01 2035.37L3775.18 2029.26C3574.66 2022.42 3478.22 2002.05 3345.03 1938.45C3270.61 1902.91 3173.56 1825.12 3151.01 1782.92C3104.46 1695.81 3121.92 1605.35 3200.01 1529.19C3251.72 1478.75 3254.71 1472.27 3261.89 1395.24Z"/>
</mask>
<path fill-rule="evenodd" clip-rule="evenodd" d="M3661.27 66.6261C3566.86 77.7755 3446.27 104.59 3345.83 136.787C3307.28 149.141 3238.94 162.63 3193.96 166.76C3065.33 178.565 2839.93 226.626 2703.95 271.223C2356.51 385.198 2171.69 563.331 2247.85 710.824C2269.42 752.579 2320.27 780.634 2374.4 780.634C2417.38 780.634 2501.9 740.494 2604.13 671.561C2638.67 648.268 2669.12 631.386 2671.78 634.053C2674.45 636.709 2665.48 654.574 2651.85 673.737C2617.33 722.278 2558.82 842.582 2532.57 918.966C2517.4 963.143 2496.32 995.292 2464.82 1022.29C2338.77 1130.35 2338.15 1312.27 2463.6 1379.03C2531.89 1415.38 2612.06 1408.11 2705.35 1357.15C2753.45 1337.77 2780.54 1326.87 2829.46 1313.41C2829.79 1313.33 2830.13 1313.27 2830.47 1313.25C2872.03 1310.52 2901.84 1310.99 2960.3 1313.28C3056.68 1313.09 3150.01 1317 3167.67 1321.95C3196.56 1330.04 3199.8 1336.2 3199.8 1382.98C3199.8 1439.53 3169.48 1482.53 3030.6 1622.98C2955.97 1698.44 2920.03 1771.18 2919.67 1847.43C2919.33 1919.98 2935.28 1958.95 2987.23 2012.49C3066.02 2093.69 3207.83 2111.44 3319.98 2054.15C3371.29 2027.93 3382.12 2028.66 3521.08 2067.54C3594.81 2088.18 3653.29 2094.6 3798.02 2097.96L3979.49 2102.17C3980.78 2102.2 3982 2102.73 3982.91 2103.64L4033.7 2154.49C4127.83 2248.77 4274.7 2267.8 4404.42 2202.54C4484.24 2162.4 4650.72 2028.8 4739.93 1933.28C4875.59 1788.07 4973.44 1612.61 5023.94 1424.09C5060.64 1287 5060.53 1052.64 5023.67 915.176C4994.85 807.671 4937.25 680.359 4874.86 586.238C4712.99 342.016 4417.66 153.002 4092.09 85.2396C3987.32 63.4438 3768.39 53.9792 3661.27 66.6261ZM3678.79 121.145C3330.56 171.089 3070.45 291.978 2861.93 500.787C2734.68 628.215 2646.81 766.162 2587.5 931.601C2563.24 999.282 2545.34 1028.02 2505.62 1063.03C2371.76 1181.03 2403.7 1342.2 2560.96 1342.2C2606.84 1342.2 2641.98 1331.96 2707.6 1299.5C2793.66 1256.91 2794.41 1256.78 2953.05 1255.72C3040.57 1255.13 3136.42 1258.77 3166.06 1263.8C3218.39 1272.69 3220.36 1271.93 3234.58 1237.57C3247.88 1205.4 3246.06 1197.13 3214.55 1146.42C3162.95 1063.41 3149.24 1020.31 3156.68 964.699C3172.52 846.454 3305.62 812.795 3518.26 873.28C3580.52 890.993 3619 892.924 3781.7 886.489C3856.09 886.027 3897.76 884.517 3970.13 879.123C3971.46 879.024 3972.72 878.396 3973.58 877.382L4020.48 822.424C4082.62 749.631 4130.27 728.666 4194.32 745.934C4305.94 776.036 4410.68 934.643 4468.35 1160.86C4495.21 1266.2 4497.71 1294.75 4493.48 1447.49C4489.94 1574.95 4483.21 1633.14 4466.4 1681.48L4445.24 1742.3C4444.51 1744.39 4442.5 1745.76 4440.29 1745.65L4352.64 1741.61C4227.71 1735.85 4166.28 1755.03 4098.18 1821.1C3982.44 1933.41 3999.08 2080.31 4135.43 2149.97C4194.68 2180.23 4298.55 2180.04 4365.68 2149.53C4458.77 2107.22 4589.54 2006.71 4692.31 1898.45C4880.87 1699.86 4980.22 1480.26 4995.26 1228.86C5008.36 1009.78 4956.38 815.311 4835.67 631.807C4653.67 355.178 4346.49 172.996 3982.55 125.848C3898.15 114.909 3739.39 112.464 3678.79 121.145ZM2989.04 254.423C2659.17 324.888 2450.55 416.014 2338.19 538.704C2280.04 602.208 2271.39 658.166 2313.26 700.096C2350.32 737.206 2412.33 723.67 2526.56 653.521C2579.29 621.137 2649.83 581.933 2683.31 566.396C2719.23 549.737 2783.69 500.19 2840.57 445.531C2893.57 394.581 2978.75 325.426 3029.86 291.837C3132.34 224.485 3131.75 223.935 2989.04 254.423ZM3026.73 1722.31C2948.78 1821.54 2970.47 1945.85 3075.03 1999.27C3111.86 2018.09 3137.82 2022.22 3195.89 2018.52C3301.37 2011.8 3305.91 1999.21 3223.81 1941.21C3140.45 1882.36 3097.19 1828.28 3070.68 1749.86L3053.91 1700.25C3052.64 1696.48 3047.69 1695.63 3045.24 1698.76L3026.73 1722.31ZM-1861.63 4415.69C-1847.09 4418.48 -1826.06 4418.38 -1814.89 4415.45C-1803.73 4412.53 -1815.62 4410.23 -1841.32 4410.36C-1867.02 4410.49 -1876.16 4412.89 -1861.63 4415.69ZM-1733.25 4416.04C-1699.51 4418.4 -1644.31 4418.4 -1610.59 4416.04C-1576.85 4413.67 -1604.45 4411.74 -1671.92 4411.74C-1739.39 4411.74 -1766.98 4413.67 -1733.25 4416.04ZM3261.89 1395.24C3273.48 1270.87 3329.48 1164.15 3445.06 1046.17L3537.52 951.769C3538.46 950.812 3539.74 950.271 3541.08 950.268L3712.58 949.817C3712.65 949.817 3712.65 949.816 3712.72 949.819C3714.96 949.907 3820.39 954.013 3887.99 949.817C3931.28 947.13 3955.89 956.874 3998.5 938.589C4041.1 920.305 4047.75 892.575 4072.34 852.858C4073.16 851.722 4073.97 850.601 4074.77 849.495C4103.21 810.154 4117.42 790.483 4181.89 816.29C4264.43 852.461 4306.48 891.161 4346.21 986.943C4350.14 997.23 4353.89 1006.99 4357.5 1016.36C4384.86 1087.49 4403.27 1135.36 4419.25 1212.45C4433.14 1271.15 4435.68 1294.83 4439.31 1328.62C4439.91 1334.24 4440.55 1340.14 4441.27 1346.53L4441.27 1347V1347.03C4441.55 1370.11 4441.71 1383.29 4441.27 1406.55L4433.8 1500.14C4429.69 1551.62 4421.22 1612.16 4414.98 1634.68L4404.65 1671.97C4404.05 1674.13 4402.09 1675.63 4399.84 1675.64L4307 1675.84C4231.32 1676 4198.96 1681.64 4157.79 1701.86C4034.06 1762.6 3959.18 1866.63 3959.18 1977.8V2030.37C3959.18 2033.2 3956.84 2035.47 3954.01 2035.37L3775.18 2029.26C3574.66 2022.42 3478.22 2002.05 3345.03 1938.45C3270.61 1902.91 3173.56 1825.12 3151.01 1782.92C3104.46 1695.81 3121.92 1605.35 3200.01 1529.19C3251.72 1478.75 3254.71 1472.27 3261.89 1395.24Z" fill="#2D2D2E"/>
<path d="M4257.89 1499.89L4258.59 1495.44L4257.89 1499.89ZM4260.95 1499.39L4258.89 1495.39L4260.95 1499.39ZM3924.83 1445.27L3928.82 1443.18L3924.83 1445.27ZM3928.48 1447.89L3929.18 1443.44L3928.48 1447.89ZM3774.81 1154.14L3778.74 1156.32L3774.81 1154.14ZM3774.75 1158.89L3770.77 1160.98L3774.75 1158.89ZM4436.77 1346.59C4436.77 1346.65 4436.77 1346.72 4436.77 1346.8C4436.77 1346.88 4436.77 1346.97 4436.77 1347.05L4445.77 1346.95C4445.77 1346.88 4445.77 1346.81 4445.77 1346.73C4445.77 1346.65 4445.77 1346.57 4445.77 1346.48L4436.77 1346.59ZM3884.05 947.637L3770.87 1151.96L3778.74 1156.32L3891.92 951.998L3884.05 947.637ZM3770.77 1160.98L3920.85 1447.36L3928.82 1443.18L3778.74 1156.8L3770.77 1160.98ZM3927.78 1452.33L4257.18 1504.33L4258.59 1495.44L3929.18 1443.44L3927.78 1452.33ZM4263.01 1503.39L4443.33 1410.55L4439.21 1402.54L4258.89 1495.39L4263.01 1503.39ZM4257.18 1504.33C4259.18 1504.64 4261.22 1504.32 4263.01 1503.39L4258.89 1495.39C4258.8 1495.44 4258.69 1495.46 4258.59 1495.44L4257.18 1504.33ZM3920.85 1447.36C3922.24 1450.02 3924.81 1451.86 3927.78 1452.33L3929.18 1443.44C3929.03 1443.42 3928.89 1443.32 3928.82 1443.18L3920.85 1447.36ZM3770.87 1151.96C3769.32 1154.76 3769.28 1158.14 3770.77 1160.98L3778.74 1156.8C3778.66 1156.65 3778.66 1156.47 3778.74 1156.32L3770.87 1151.96ZM3661.27 66.6261L3660.21 57.6882L3660.21 57.6882L3661.27 66.6261ZM3345.83 136.787L3348.58 145.357L3348.58 145.357L3345.83 136.787ZM3193.96 166.76L3194.78 175.723L3194.78 175.723L3193.96 166.76ZM2703.95 271.223L2701.14 262.671L2701.14 262.672L2703.95 271.223ZM2247.85 710.824L2239.85 714.953L2239.85 714.954L2247.85 710.824ZM2604.13 671.561L2599.1 664.099L2599.1 664.099L2604.13 671.561ZM2671.78 634.053L2665.42 640.413L2665.42 640.42L2665.43 640.427L2671.78 634.053ZM2651.85 673.737L2659.19 678.954L2659.19 678.952L2651.85 673.737ZM2532.57 918.966L2524.06 916.041L2524.06 916.042L2532.57 918.966ZM2464.82 1022.29L2470.68 1029.13L2470.68 1029.13L2464.82 1022.29ZM2463.6 1379.03L2467.83 1371.08L2467.82 1371.08L2463.6 1379.03ZM2705.35 1357.15L2701.98 1348.8L2701.5 1349L2701.03 1349.25L2705.35 1357.15ZM2960.3 1313.28L2959.95 1322.27L2960.13 1322.28L2960.32 1322.28L2960.3 1313.28ZM3167.67 1321.95L3170.1 1313.28L3170.1 1313.28L3167.67 1321.95ZM3030.6 1622.98L3037 1629.31L3037 1629.31L3030.6 1622.98ZM2919.67 1847.43L2910.67 1847.39L2910.67 1847.39L2919.67 1847.43ZM2987.23 2012.49L2993.69 2006.22L2993.69 2006.22L2987.23 2012.49ZM3319.98 2054.15L3324.07 2062.16L3324.07 2062.16L3319.98 2054.15ZM3521.08 2067.54L3523.5 2058.88L3523.5 2058.88L3521.08 2067.54ZM3798.02 2097.96L3798.22 2088.96L3798.22 2088.96L3798.02 2097.96ZM4033.7 2154.49L4040.07 2148.13L4040.07 2148.13L4033.7 2154.49ZM4404.42 2202.54L4400.38 2194.5L4400.38 2194.5L4404.42 2202.54ZM4739.93 1933.28L4733.35 1927.14L4733.35 1927.14L4739.93 1933.28ZM5023.94 1424.09L5032.63 1426.42L5032.63 1426.42L5023.94 1424.09ZM5023.67 915.176L5014.97 917.506L5014.97 917.506L5023.67 915.176ZM4874.86 586.238L4867.36 591.211L4867.36 591.211L4874.86 586.238ZM4092.09 85.2396L4093.93 76.4284L4093.93 76.4283L4092.09 85.2396ZM3678.79 121.145L3677.52 112.236L3677.52 112.236L3678.79 121.145ZM2861.93 500.787L2868.3 507.146L2868.3 507.146L2861.93 500.787ZM2587.5 931.601L2595.98 934.639L2595.98 934.638L2587.5 931.601ZM2505.62 1063.03L2511.57 1069.78L2511.57 1069.78L2505.62 1063.03ZM2707.6 1299.5L2711.59 1307.56L2711.6 1307.56L2707.6 1299.5ZM2953.05 1255.72L2952.99 1246.72L2952.99 1246.72L2953.05 1255.72ZM3166.06 1263.8L3167.57 1254.93L3167.57 1254.93L3166.06 1263.8ZM3234.58 1237.57L3242.89 1241.01L3242.89 1241.01L3234.58 1237.57ZM3214.55 1146.42L3222.2 1141.67L3222.2 1141.67L3214.55 1146.42ZM3156.68 964.699L3147.76 963.504L3147.76 963.505L3156.68 964.699ZM3518.26 873.28L3520.72 864.624L3520.72 864.624L3518.26 873.28ZM3781.7 886.489L3781.64 877.489L3781.49 877.49L3781.34 877.496L3781.7 886.489ZM4020.48 822.424L4013.63 816.58L4013.63 816.582L4020.48 822.424ZM4194.32 745.934L4196.66 737.244L4196.66 737.244L4194.32 745.934ZM4468.35 1160.86L4459.63 1163.08L4459.63 1163.08L4468.35 1160.86ZM4493.48 1447.49L4502.48 1447.74L4502.48 1447.74L4493.48 1447.49ZM4466.4 1681.48L4474.9 1684.44L4474.9 1684.44L4466.4 1681.48ZM4352.64 1741.61L4352.23 1750.6L4352.23 1750.6L4352.64 1741.61ZM4098.18 1821.1L4091.91 1814.64L4091.91 1814.64L4098.18 1821.1ZM4135.43 2149.97L4131.33 2157.98L4131.33 2157.98L4135.43 2149.97ZM4365.68 2149.53L4369.41 2157.73L4369.41 2157.73L4365.68 2149.53ZM4692.31 1898.45L4685.78 1892.26L4685.78 1892.26L4692.31 1898.45ZM4995.26 1228.86L4986.27 1228.32L4986.27 1228.32L4995.26 1228.86ZM4835.67 631.807L4843.19 626.861L4843.19 626.861L4835.67 631.807ZM3982.55 125.848L3981.39 134.773L3981.39 134.773L3982.55 125.848ZM2989.04 254.423L2990.92 263.225L2990.92 263.225L2989.04 254.423ZM2338.19 538.704L2344.83 544.783L2344.83 544.782L2338.19 538.704ZM2313.26 700.096L2319.63 693.736L2313.26 700.096ZM2526.56 653.521L2521.85 645.852L2521.85 645.852L2526.56 653.521ZM2683.31 566.396L2679.53 558.232L2679.53 558.233L2683.31 566.396ZM2840.57 445.531L2846.8 452.02L2846.8 452.019L2840.57 445.531ZM3029.86 291.837L3034.8 299.359L3034.8 299.358L3029.86 291.837ZM3445.06 1046.17L3451.48 1052.47L3451.48 1052.47L3445.06 1046.17ZM3261.89 1395.24L3270.85 1396.08L3270.85 1396.08L3261.89 1395.24ZM3200.01 1529.19L3206.29 1535.63L3206.29 1535.63L3200.01 1529.19ZM3151.01 1782.92L3158.95 1778.68L3158.95 1778.68L3151.01 1782.92ZM3345.03 1938.45L3341.15 1946.58L3341.15 1946.58L3345.03 1938.45ZM3775.18 2029.26L3775.48 2020.27L3775.48 2020.27L3775.18 2029.26ZM4157.79 1701.86L4161.75 1709.94L4161.75 1709.94L4157.79 1701.86ZM4307 1675.84L4307.02 1684.84L4307.02 1684.84L4307 1675.84ZM4414.98 1634.68L4423.66 1637.08L4423.66 1637.08L4414.98 1634.68ZM4433.8 1500.14L4442.78 1500.86L4442.78 1500.86L4433.8 1500.14ZM4441.27 1406.55L4450.24 1407.26L4450.26 1406.99L4450.27 1406.71L4441.27 1406.55ZM3887.99 949.817L3887.43 940.835L3887.99 949.817ZM3026.73 1722.31L3019.65 1716.75L3019.65 1716.75L3026.73 1722.31ZM3075.03 1999.27L3079.12 1991.25L3079.12 1991.25L3075.03 1999.27ZM3195.89 2018.52L3196.46 2027.51L3196.46 2027.51L3195.89 2018.52ZM3223.81 1941.21L3229 1933.86L3229 1933.86L3223.81 1941.21ZM3070.68 1749.86L3079.21 1746.98L3079.21 1746.98L3070.68 1749.86ZM-1733.25 4416.04L-1733.88 4425.01L-1733.88 4425.01L-1733.25 4416.04ZM-1610.59 4416.04L-1611.21 4407.06L-1611.21 4407.06L-1610.59 4416.04ZM4072.34 852.858L4065.05 847.578L4064.86 847.843L4064.68 848.121L4072.34 852.858ZM4181.89 816.29L4185.5 808.047L4185.37 807.988L4185.23 807.935L4181.89 816.29ZM4346.21 986.943L4354.62 983.734L4354.58 983.613L4354.53 983.494L4346.21 986.943ZM4419.25 1212.45L4410.43 1214.27L4410.46 1214.4L4410.49 1214.52L4419.25 1212.45ZM4441.27 1346.53L4450.27 1346.45L4450.27 1345.98L4450.21 1345.52L4441.27 1346.53ZM4074.77 849.495L4082.06 854.767L4082.06 854.767L4074.77 849.495ZM4357.5 1016.36L4349.1 1019.59L4349.1 1019.59L4357.5 1016.36ZM4439.31 1328.62L4430.36 1329.58L4430.36 1329.58L4439.31 1328.62ZM4441.27 1347H4450.27V1346.96L4450.27 1346.92L4441.27 1347ZM4441.27 1347.03H4432.27V1347.09L4432.27 1347.14L4441.27 1347.03ZM2829.46 1313.41L2831.85 1322.09L2829.46 1313.41ZM2830.47 1313.25L2831.06 1322.23L2830.47 1313.25ZM3541.08 950.268L3541.1 959.268L3541.08 950.268ZM3537.52 951.769L3531.09 945.472L3537.52 951.769ZM3712.72 949.819L3713.07 940.826L3712.72 949.819ZM3712.58 949.817L3712.6 958.817L3712.58 949.817ZM4399.84 1675.64L4399.86 1684.64L4399.86 1684.64L4399.84 1675.64ZM4404.65 1671.97L4413.33 1674.38L4404.65 1671.97ZM3954.01 2035.37L3954.32 2026.38L3954.01 2035.37ZM4445.24 1742.3L4436.74 1739.34L4445.24 1742.3ZM4440.29 1745.65L4439.87 1754.64L4440.29 1745.65ZM3053.91 1700.25L3062.43 1697.36L3053.91 1700.25ZM3045.24 1698.76L3052.32 1704.32L3045.24 1698.76ZM3970.13 879.123L3970.8 888.098L3970.13 879.123ZM3973.58 877.382L3980.43 883.224L3973.58 877.382ZM3979.49 2102.17L3979.7 2093.18L3979.49 2102.17ZM3982.91 2103.64L3989.28 2097.28L3982.91 2103.64ZM3660.21 57.6882C3565.17 68.9123 3444.02 95.8621 3343.09 128.216L3348.58 145.357C3448.53 113.319 3568.55 86.6387 3662.32 75.564L3660.21 57.6882ZM3343.09 128.216C3305.23 140.349 3237.53 153.721 3193.13 157.798L3194.78 175.723C3240.34 171.54 3309.34 157.934 3348.58 145.357L3343.09 128.216ZM3193.14 157.798C3063.77 169.671 2837.7 217.885 2701.14 262.671L2706.75 279.775C2842.16 235.366 3066.9 187.459 3194.78 175.723L3193.14 157.798ZM2701.14 262.672C2526.75 319.88 2392.27 393.452 2310.81 471.974C2229.4 550.435 2199.11 636.052 2239.85 714.953L2255.85 706.695C2220.43 638.104 2244.47 560.907 2323.3 484.934C2402.06 409.023 2533.71 336.541 2706.75 279.775L2701.14 262.672ZM2239.85 714.954C2263.23 760.217 2317.53 789.634 2374.4 789.634V771.634C2323.01 771.634 2275.6 744.941 2255.85 706.694L2239.85 714.954ZM2374.4 789.634C2398.03 789.634 2431.46 778.806 2470.91 760.077C2510.71 741.177 2557.8 713.657 2609.16 679.023L2599.1 664.099C2548.23 698.398 2501.95 725.414 2463.19 743.817C2424.07 762.391 2393.75 771.634 2374.4 771.634V789.634ZM2609.16 679.024C2626.28 667.479 2642.3 657.582 2654.28 650.943C2660.3 647.603 2665.1 645.201 2668.41 643.82C2670.12 643.107 2671.08 642.817 2671.45 642.737C2671.66 642.691 2671.28 642.803 2670.56 642.77C2670.04 642.746 2667.59 642.589 2665.42 640.413L2678.15 627.694C2675.65 625.184 2672.64 624.846 2671.37 624.788C2669.89 624.721 2668.56 624.944 2667.61 625.15C2665.67 625.574 2663.54 626.347 2661.48 627.206C2657.26 628.968 2651.79 631.742 2645.55 635.201C2633 642.159 2616.52 652.351 2599.1 664.099L2609.16 679.024ZM2665.43 640.427C2664.23 639.227 2663.7 637.936 2663.47 637.109C2663.25 636.308 2663.25 635.725 2663.25 635.539C2663.26 635.208 2663.3 635.351 2663.06 636.178C2662.61 637.756 2661.59 640.273 2659.88 643.666C2656.53 650.349 2651.14 659.209 2644.52 668.523L2659.19 678.952C2666.19 669.102 2672.1 659.448 2675.97 651.744C2677.88 647.944 2679.45 644.299 2680.35 641.181C2680.79 639.66 2681.21 637.822 2681.25 635.931C2681.28 634.383 2681.13 630.661 2678.14 627.68L2665.43 640.427ZM2644.52 668.521C2609.35 717.965 2550.5 839.111 2524.06 916.041L2541.08 921.891C2567.15 846.052 2625.31 726.591 2659.19 678.954L2644.52 668.521ZM2524.06 916.042C2509.34 958.898 2489.1 989.63 2458.97 1015.46L2470.68 1029.13C2503.54 1000.95 2525.45 967.387 2541.08 921.89L2524.06 916.042ZM2458.97 1015.46C2394.06 1071.1 2361.14 1146.03 2360.9 1216.12C2360.65 1286.32 2393.31 1351.82 2459.37 1386.97L2467.82 1371.08C2408.44 1339.48 2378.67 1280.64 2378.89 1216.18C2379.12 1151.61 2409.53 1081.55 2470.68 1029.13L2458.97 1015.46ZM2459.37 1386.97C2531.28 1425.25 2614.81 1416.87 2709.66 1365.05L2701.03 1349.25C2609.31 1399.36 2532.51 1405.51 2467.83 1371.08L2459.37 1386.97ZM2708.71 1365.5C2756.77 1346.13 2783.46 1335.4 2831.85 1322.09L2827.08 1304.74C2777.62 1318.34 2750.13 1329.4 2701.98 1348.8L2708.71 1365.5ZM2831.06 1322.23C2872.15 1319.53 2901.58 1319.99 2959.95 1322.27L2960.65 1304.29C2902.11 1301.99 2871.92 1301.51 2829.88 1304.26L2831.06 1322.23ZM2960.32 1322.28C3008.4 1322.19 3055.69 1323.11 3093.13 1324.68C3111.86 1325.46 3128.06 1326.4 3140.63 1327.45C3153.51 1328.52 3161.79 1329.65 3165.24 1330.61L3170.1 1313.28C3164.72 1311.77 3154.71 1310.56 3142.12 1309.51C3129.21 1308.44 3112.74 1307.48 3093.88 1306.7C3056.15 1305.12 3008.59 1304.19 2960.28 1304.28L2960.32 1322.28ZM3165.24 1330.61C3179.84 1334.7 3184.16 1337.5 3186.61 1342.15C3188.04 1344.87 3189.18 1348.97 3189.89 1355.78C3190.59 1362.55 3190.8 1371.3 3190.8 1382.98H3208.8C3208.8 1371.27 3208.6 1361.71 3207.79 1353.92C3206.99 1346.16 3205.52 1339.44 3202.53 1333.77C3196.14 1321.62 3184.39 1317.29 3170.1 1313.28L3165.24 1330.61ZM3190.8 1382.98C3190.8 1409.01 3184.04 1432.12 3159.92 1466.33C3135.48 1501 3093.71 1546.36 3024.2 1616.65L3037 1629.31C3106.37 1559.15 3149.2 1512.78 3174.64 1476.7C3200.4 1440.16 3208.8 1413.5 3208.8 1382.98H3190.8ZM3024.2 1616.65C2948.57 1693.12 2911.05 1767.99 2910.67 1847.39L2928.67 1847.48C2929.02 1774.37 2963.37 1703.76 3037 1629.31L3024.2 1616.65ZM2910.67 1847.39C2910.5 1884.32 2914.46 1913.5 2925.51 1940.5C2936.55 1967.48 2954.38 1991.56 2980.77 2018.75L2993.69 2006.22C2968.13 1979.88 2952 1957.71 2942.17 1933.68C2932.34 1909.67 2928.5 1883.09 2928.67 1847.48L2910.67 1847.39ZM2980.77 2018.75C3062.71 2103.21 3208.94 2120.98 3324.07 2062.16L3315.89 2046.13C3206.71 2101.9 3069.33 2084.18 2993.69 2006.22L2980.77 2018.75ZM3324.07 2062.16C3349.28 2049.28 3363.03 2043.81 3387.06 2045.41C3412.39 2047.1 3448.76 2056.65 3518.65 2076.21L3523.5 2058.88C3454.44 2039.55 3415.91 2029.29 3388.26 2027.45C3359.31 2025.52 3341.99 2032.79 3315.88 2046.13L3324.07 2062.16ZM3518.65 2076.21C3593.48 2097.16 3652.87 2103.6 3797.81 2106.96L3798.22 2088.96C3653.71 2085.61 3596.13 2079.21 3523.5 2058.88L3518.65 2076.21ZM3797.81 2106.96L3979.28 2111.17L3979.7 2093.18L3798.22 2088.96L3797.81 2106.96ZM3976.54 2110L4027.34 2160.85L4040.07 2148.13L3989.28 2097.28L3976.54 2110ZM4027.34 2160.85C4124.53 2258.19 4275.69 2277.37 4408.47 2210.58L4400.38 2194.5C4273.7 2258.23 4131.14 2239.34 4040.07 2148.13L4027.34 2160.85ZM4408.47 2210.58C4449.27 2190.06 4511.46 2146.12 4574.29 2095.7C4637.24 2045.17 4701.51 1987.6 4746.51 1939.43L4733.35 1927.14C4689.13 1974.48 4625.56 2031.46 4563.02 2081.66C4500.35 2131.95 4439.39 2174.88 4400.38 2194.5L4408.47 2210.58ZM4746.5 1939.43C4883.15 1793.16 4981.75 1616.39 5032.63 1426.42L5015.24 1421.77C4965.14 1608.82 4868.02 1782.99 4733.35 1927.14L4746.5 1939.43ZM5032.63 1426.42C5051.26 1356.85 5060.44 1263.13 5060.39 1169.77C5060.34 1076.41 5051.07 982.604 5032.36 912.845L5014.97 917.506C5033.13 985.214 5042.34 1077.32 5042.39 1169.78C5042.44 1262.24 5033.32 1354.25 5015.24 1421.77L5032.63 1426.42ZM5032.36 912.845C5003.28 804.387 4945.28 676.185 4882.37 581.266L4867.36 591.211C4929.22 684.533 4986.41 810.955 5014.97 917.506L5032.36 912.845ZM4882.37 581.266C4719 334.795 4421.47 144.603 4093.93 76.4284L4090.26 94.0508C4413.84 161.401 4706.98 349.237 4867.36 591.211L4882.37 581.266ZM4093.93 76.4283C4040.84 65.3833 3959.34 57.5425 3877.95 54.0252C3796.56 50.5079 3714.48 51.281 3660.21 57.6882L3662.32 75.564C3715.17 69.3243 3796.13 68.5063 3877.17 72.0084C3958.22 75.5108 4038.58 83.3002 4090.26 94.051L4093.93 76.4283ZM3677.52 112.236C3327.74 162.402 3065.7 283.99 2855.56 494.427L2868.3 507.146C3075.19 299.966 3333.39 179.776 3680.07 130.054L3677.52 112.236ZM2855.56 494.427C2727.4 622.771 2638.79 761.844 2579.03 928.565L2595.98 934.638C2654.82 770.479 2741.97 633.66 2868.3 507.146L2855.56 494.427ZM2579.03 928.564C2566.98 962.189 2556.69 985.592 2544.72 1004.81C2532.83 1023.9 2519.06 1039.18 2499.67 1056.28L2511.57 1069.78C2531.9 1051.86 2546.94 1035.27 2560 1014.32C2572.97 993.499 2583.77 968.695 2595.98 934.639L2579.03 928.564ZM2499.67 1056.28C2431.14 1116.69 2403.57 1189.5 2415.29 1248.61C2421.16 1278.25 2436.91 1304.08 2461.81 1322.42C2486.66 1340.72 2520.11 1351.2 2560.96 1351.2V1333.2C2523.18 1333.2 2493.67 1323.53 2472.48 1307.93C2451.35 1292.36 2437.98 1270.53 2432.95 1245.12C2422.84 1194.14 2446.24 1127.37 2511.57 1069.78L2499.67 1056.28ZM2560.96 1351.2C2608.81 1351.2 2645.39 1340.32 2711.59 1307.56L2703.61 1291.43C2638.57 1323.61 2604.87 1333.2 2560.96 1333.2V1351.2ZM2711.6 1307.56C2754.83 1286.17 2775.39 1276.12 2804.69 1270.9C2834.51 1265.58 2873.39 1265.25 2953.11 1264.72L2952.99 1246.72C2874.07 1247.25 2833.25 1247.52 2801.53 1253.18C2769.27 1258.93 2746.43 1270.24 2703.61 1291.43L2711.6 1307.56ZM2953.11 1264.72C3040.75 1264.13 3135.82 1267.8 3164.55 1272.68L3167.57 1254.93C3137.02 1249.75 3040.4 1246.13 2952.99 1246.72L2953.11 1264.72ZM3164.55 1272.68C3177.53 1274.88 3187.87 1276.58 3196.1 1277.26C3204.25 1277.93 3211.49 1277.74 3217.83 1275.31C3224.58 1272.73 3229.16 1268.07 3232.85 1262.22C3236.33 1256.68 3239.41 1249.43 3242.89 1241.01L3226.26 1234.13C3222.64 1242.89 3220.13 1248.63 3217.62 1252.62C3215.3 1256.3 3213.45 1257.72 3211.39 1258.5C3208.91 1259.45 3204.97 1259.93 3197.58 1259.32C3190.28 1258.71 3180.75 1257.17 3167.57 1254.93L3164.55 1272.68ZM3242.89 1241.01C3249.65 1224.69 3253.53 1212.34 3250.16 1197.02C3247.03 1182.77 3237.71 1166.64 3222.2 1141.67L3206.91 1151.17C3222.91 1176.92 3230.25 1190.27 3232.58 1200.88C3234.68 1210.42 3232.82 1218.28 3226.26 1234.13L3242.89 1241.01ZM3222.2 1141.67C3170.96 1059.24 3158.57 1018.37 3165.6 965.893L3147.76 963.505C3139.9 1022.24 3154.94 1067.57 3206.91 1151.18L3222.2 1141.67ZM3165.6 965.894C3169.34 937.999 3179.9 915.554 3196.46 898.247C3213.07 880.887 3236.21 868.191 3265.88 860.691C3325.47 845.624 3410.1 851.871 3515.8 881.937L3520.72 864.624C3413.78 834.205 3325.54 827.039 3261.46 843.24C3229.29 851.375 3202.9 865.484 3183.45 885.802C3163.96 906.172 3151.94 932.276 3147.76 963.504L3165.6 965.894ZM3515.8 881.937C3579.6 900.089 3619.42 901.914 3782.05 895.482L3781.34 877.496C3618.58 883.933 3581.43 881.897 3520.72 864.624L3515.8 881.937ZM3781.75 895.489C3856.33 895.026 3898.2 893.509 3970.8 888.098L3969.46 870.148C3897.31 875.525 3855.85 877.028 3781.64 877.489L3781.75 895.489ZM3980.43 883.224L4027.33 828.266L4013.63 816.582L3966.74 871.539L3980.43 883.224ZM4027.32 828.267C4058.05 792.275 4084.44 770.024 4110.31 758.644C4135.79 747.431 4161.57 746.424 4191.98 754.623L4196.66 737.244C4163.03 728.175 4132.95 729.017 4103.06 742.168C4073.55 755.151 4045.05 779.78 4013.63 816.58L4027.32 828.267ZM4191.98 754.623C4244.75 768.856 4297.27 813.966 4344.06 884.814C4390.72 955.464 4430.98 1050.68 4459.63 1163.08L4477.07 1158.64C4448.06 1044.82 4407.11 947.627 4359.08 874.894C4311.17 802.359 4255.51 753.114 4196.66 737.244L4191.98 754.623ZM4459.63 1163.08C4473.03 1215.66 4480.22 1248.55 4483.61 1287.19C4487.01 1325.99 4486.6 1370.81 4484.48 1447.24L4502.48 1447.74C4504.59 1371.43 4505.04 1325.61 4501.54 1285.61C4498.02 1245.46 4490.53 1211.41 4477.07 1158.64L4459.63 1163.08ZM4484.48 1447.24C4480.94 1574.74 4474.2 1631.65 4457.9 1678.52L4474.9 1684.44C4492.22 1634.63 4498.94 1575.15 4502.48 1447.74L4484.48 1447.24ZM4457.9 1678.52L4436.74 1739.34L4453.74 1745.26L4474.9 1684.44L4457.9 1678.52ZM4440.7 1736.66L4353.06 1732.62L4352.23 1750.6L4439.87 1754.64L4440.7 1736.66ZM4353.06 1732.62C4290.17 1729.72 4242.37 1733.04 4201.42 1745.83C4160.25 1758.69 4126.69 1780.9 4091.91 1814.64L4104.45 1827.56C4137.77 1795.23 4168.97 1774.82 4206.78 1763.01C4244.8 1751.13 4290.18 1747.74 4352.23 1750.6L4353.06 1732.62ZM4091.91 1814.64C4032.5 1872.29 4006.21 1939.72 4013.33 2002.54C4020.46 2065.48 4060.92 2122.01 4131.33 2157.98L4139.52 2141.95C4073.58 2108.26 4037.55 2056.51 4031.21 2000.52C4024.86 1944.39 4048.12 1882.22 4104.45 1827.56L4091.91 1814.64ZM4131.33 2157.98C4162.64 2173.97 4204.97 2181.62 4247.62 2181.54C4290.33 2181.46 4334.41 2173.63 4369.41 2157.73L4361.96 2141.34C4329.83 2155.94 4288.41 2163.46 4247.58 2163.54C4206.7 2163.62 4167.46 2156.22 4139.52 2141.95L4131.33 2157.98ZM4369.41 2157.73C4463.92 2114.76 4595.6 2013.39 4698.84 1904.65L4685.78 1892.26C4583.47 2000.02 4453.63 2099.67 4361.96 2141.34L4369.41 2157.73ZM4698.84 1904.65C4888.72 1704.66 4989.07 1483.11 5004.24 1229.39L4986.27 1228.32C4971.37 1477.42 4873.02 1695.06 4685.78 1892.26L4698.84 1904.65ZM5004.24 1229.39C5017.46 1008.37 4964.96 811.985 4843.19 626.861L4828.15 636.753C4947.79 818.636 4999.26 1011.18 4986.27 1228.32L5004.24 1229.39ZM4843.19 626.861C4659.59 347.789 4349.93 164.366 3983.7 116.922L3981.39 134.773C4343.05 181.626 4647.76 362.567 4828.15 636.754L4843.19 626.861ZM3983.7 116.923C3941.03 111.391 3879.86 108.036 3821.88 107.14C3764.03 106.246 3708.58 107.786 3677.52 112.236L3680.07 130.054C3709.61 125.822 3763.83 124.245 3821.61 125.138C3879.26 126.029 3939.67 129.366 3981.39 134.773L3983.7 116.923ZM2987.16 245.622C2657.01 316.146 2445.94 407.723 2331.56 532.626L2344.83 544.782C2455.16 424.305 2661.32 333.63 2990.92 263.225L2987.16 245.622ZM2331.56 532.626C2301.88 565.028 2283.9 596.476 2279.32 626.116C2274.66 656.317 2284.08 683.609 2306.89 706.455L2319.63 693.736C2300.57 674.653 2293.38 653.001 2297.11 628.864C2300.93 604.167 2316.35 575.884 2344.83 544.783L2331.56 532.626ZM2306.89 706.455C2328.19 727.784 2356.42 733.786 2392.89 725.823C2428.85 717.972 2473.98 696.373 2531.27 661.19L2521.85 645.852C2464.91 680.817 2421.92 701.061 2389.05 708.238C2356.7 715.302 2335.39 709.518 2319.63 693.736L2306.89 706.455ZM2531.26 661.19C2583.87 628.885 2654.08 589.885 2687.1 574.56L2679.53 558.233C2645.59 573.981 2574.71 613.389 2521.85 645.852L2531.26 661.19ZM2687.1 574.561C2724.43 557.246 2789.78 506.825 2846.8 452.02L2834.33 439.042C2777.61 493.555 2714.03 542.228 2679.53 558.232L2687.1 574.561ZM2846.8 452.019C2899.49 401.379 2984.24 332.59 3034.8 299.359L3024.92 284.316C2973.26 318.262 2887.66 387.783 2834.33 439.043L2846.8 452.019ZM3034.8 299.358C3060.32 282.586 3079.77 269.749 3092.17 260.503C3098.27 255.952 3103.23 251.861 3106.35 248.321C3107.83 246.645 3109.64 244.291 3110.52 241.435C3110.99 239.881 3111.3 237.835 3110.8 235.566C3110.29 233.192 3109.04 231.242 3107.48 229.805C3104.74 227.292 3101.3 226.59 3099.22 226.307C3096.81 225.979 3094.08 225.967 3091.22 226.116C3085.47 226.418 3077.85 227.46 3068.51 229.065C3049.77 232.287 3022.76 238.016 2987.16 245.622L2990.92 263.225C3026.67 255.587 3053.26 249.951 3071.56 246.805C3080.74 245.227 3087.51 244.335 3092.16 244.092C3094.51 243.969 3095.98 244.031 3096.8 244.143C3097.95 244.299 3096.76 244.401 3095.31 243.074C3094.4 242.231 3093.56 240.97 3093.21 239.382C3092.89 237.9 3093.13 236.738 3093.3 236.168C3093.58 235.281 3093.84 235.294 3092.86 236.403C3091.07 238.433 3087.43 241.58 3081.4 246.076C3069.55 254.923 3050.64 267.412 3024.92 284.316L3034.8 299.358ZM3438.63 1039.87C3322.07 1158.85 3264.77 1267.4 3252.93 1394.41L3270.85 1396.08C3282.2 1274.34 3336.88 1169.45 3451.48 1052.47L3438.63 1039.87ZM3252.93 1394.41C3249.3 1433.33 3246.81 1452.54 3239.48 1468.41C3232.19 1484.19 3219.84 1497.27 3193.72 1522.75L3206.29 1535.63C3231.89 1510.67 3246.89 1495.3 3255.82 1475.96C3264.7 1456.74 3267.3 1434.18 3270.85 1396.08L3252.93 1394.41ZM3193.72 1522.75C3153.65 1561.83 3128.66 1605.06 3119.93 1650.24C3111.19 1695.5 3118.93 1741.98 3143.07 1787.17L3158.95 1778.68C3136.54 1736.75 3129.73 1694.45 3137.61 1653.66C3145.5 1612.79 3168.28 1572.71 3206.29 1535.63L3193.72 1522.75ZM3143.07 1787.16C3149.31 1798.83 3160.29 1812.32 3173.93 1826.31C3187.67 1840.41 3204.53 1855.45 3222.94 1870.21C3259.7 1899.68 3303.15 1928.43 3341.15 1946.58L3348.91 1930.33C3312.48 1912.94 3270.2 1885.02 3234.2 1856.16C3216.22 1841.75 3199.94 1827.21 3186.82 1813.75C3173.59 1800.18 3163.99 1788.12 3158.95 1778.68L3143.07 1787.16ZM3341.15 1946.58C3475.79 2010.86 3573.54 2031.39 3774.87 2038.26L3775.48 2020.27C3575.79 2013.45 3480.66 1993.24 3348.91 1930.33L3341.15 1946.58ZM3774.87 2038.26L3953.7 2044.36L3954.32 2026.38L3775.48 2020.27L3774.87 2038.26ZM3968.18 2030.37V1977.8H3950.18V2030.37H3968.18ZM3968.18 1977.8C3968.18 1870.96 4040.21 1769.61 4161.75 1709.94L4153.82 1693.78C4027.9 1755.6 3950.18 1862.31 3950.18 1977.8H3968.18ZM4161.75 1709.94C4201.15 1690.59 4231.92 1685 4307.02 1684.84L4306.98 1666.84C4230.71 1667.01 4196.77 1672.69 4153.82 1693.78L4161.75 1709.94ZM4307.02 1684.84L4399.86 1684.64L4399.83 1666.64L4306.98 1666.84L4307.02 1684.84ZM4413.33 1674.38L4423.66 1637.08L4406.31 1632.28L4395.98 1669.57L4413.33 1674.38ZM4423.66 1637.08C4430.14 1613.67 4438.66 1552.39 4442.78 1500.86L4424.83 1499.42C4420.72 1550.84 4412.3 1610.65 4406.31 1632.28L4423.66 1637.08ZM4442.78 1500.86L4450.24 1407.26L4432.3 1405.83L4424.83 1499.42L4442.78 1500.86ZM3887.43 940.835C3820.37 944.997 3715.41 940.917 3713.07 940.826L3712.37 958.812C3714.52 958.896 3820.41 963.029 3888.54 958.8L3887.43 940.835ZM3712.56 940.818L3541.06 941.268L3541.1 959.268L3712.6 958.817L3712.56 940.818ZM3531.09 945.472L3438.63 1039.88L3451.48 1052.47L3543.95 958.067L3531.09 945.472ZM3019.65 1716.75C2979.29 1768.14 2964.34 1826.56 2973.57 1879.51C2982.82 1932.56 3016.22 1979.33 3070.93 2007.28L3079.12 1991.25C3029.27 1965.78 2999.55 1923.7 2991.3 1876.42C2983.04 1829.06 2996.22 1775.72 3033.81 1727.87L3019.65 1716.75ZM3070.93 2007.28C3089.95 2017 3106.56 2023.12 3126.08 2026.23C3145.42 2029.31 3167.21 2029.37 3196.46 2027.51L3195.31 2009.54C3166.49 2011.38 3146.27 2011.22 3128.91 2008.45C3111.73 2005.72 3096.94 2000.36 3079.12 1991.25L3070.93 2007.28ZM3196.46 2027.51C3222.85 2025.82 3243.51 2023.75 3258.2 2020.56C3265.53 2018.97 3271.9 2017 3276.91 2014.37C3281.86 2011.77 3286.56 2007.95 3288.66 2002.15C3290.82 1996.17 3289.43 1990.27 3286.88 1985.28C3284.36 1980.38 3280.28 1975.44 3275.27 1970.44C3265.21 1960.41 3249.54 1948.37 3229 1933.86L3218.61 1948.57C3239.13 1963.06 3253.68 1974.34 3262.56 1983.19C3267.02 1987.63 3269.59 1991.02 3270.86 1993.49C3272.08 1995.88 3271.6 1996.4 3271.73 1996.04C3271.79 1995.86 3271.53 1996.86 3268.54 1998.43C3265.6 1999.97 3261.03 2001.52 3254.39 2002.97C3241.13 2005.84 3221.66 2007.86 3195.31 2009.54L3196.46 2027.51ZM3229 1933.86C3146.83 1875.84 3104.97 1823.21 3079.21 1746.98L3062.15 1752.74C3089.4 1833.35 3134.07 1888.87 3218.62 1948.57L3229 1933.86ZM3079.21 1746.98L3062.43 1697.36L3045.38 1703.13L3062.15 1752.74L3079.21 1746.98ZM3038.16 1693.2L3019.65 1716.75L3033.81 1727.87L3052.32 1704.32L3038.16 1693.2ZM-1863.33 4424.52C-1847.83 4427.5 -1825.4 4427.51 -1812.61 4424.16L-1817.17 4406.75C-1826.73 4409.25 -1846.35 4409.46 -1859.92 4406.85L-1863.33 4424.52ZM-1812.61 4424.16C-1811.01 4423.74 -1809.29 4423.2 -1807.78 4422.46C-1807.05 4422.1 -1805.94 4421.48 -1804.88 4420.5C-1803.89 4419.58 -1802.02 4417.49 -1801.73 4414.18C-1801.42 4410.56 -1803.18 4407.95 -1804.51 4406.6C-1805.75 4405.36 -1807.08 4404.68 -1807.84 4404.33C-1809.42 4403.61 -1811.17 4403.2 -1812.58 4402.92C-1818.32 4401.82 -1828.5 4401.3 -1841.37 4401.36L-1841.28 4419.36C-1828.44 4419.3 -1819.82 4419.86 -1815.98 4420.6C-1815 4420.79 -1814.92 4420.88 -1815.3 4420.71C-1815.46 4420.64 -1816.34 4420.24 -1817.28 4419.29C-1818.32 4418.24 -1819.95 4415.94 -1819.66 4412.63C-1819.4 4409.63 -1817.72 4407.86 -1817.08 4407.27C-1816.38 4406.62 -1815.79 4406.34 -1815.75 4406.32C-1815.64 4406.26 -1815.99 4406.43 -1817.17 4406.75L-1812.61 4424.16ZM-1841.37 4401.36C-1854.01 4401.43 -1863.88 4402.02 -1868.84 4403.32C-1869.57 4403.51 -1870.42 4403.77 -1871.28 4404.14C-1872.02 4404.46 -1873.44 4405.15 -1874.75 4406.46C-1876.23 4407.95 -1878.11 4410.92 -1877.38 4414.86C-1876.78 4418.17 -1874.65 4420.06 -1873.77 4420.76C-1871.96 4422.19 -1869.79 4422.9 -1868.61 4423.27C-1867.1 4423.73 -1865.31 4424.14 -1863.33 4424.52L-1859.92 4406.85C-1861.58 4406.53 -1862.68 4406.26 -1863.35 4406.05C-1864.35 4405.75 -1863.66 4405.81 -1862.62 4406.63C-1862.14 4407.01 -1860.23 4408.6 -1859.68 4411.61C-1859.01 4415.26 -1860.78 4417.94 -1861.98 4419.15C-1863.01 4420.19 -1863.99 4420.6 -1864.12 4420.66C-1864.38 4420.77 -1864.47 4420.78 -1864.28 4420.73C-1861.88 4420.1 -1854.33 4419.43 -1841.28 4419.36L-1841.37 4401.36ZM-1733.88 4425.01C-1699.73 4427.41 -1644.1 4427.41 -1609.96 4425.01L-1611.21 4407.06C-1644.52 4409.39 -1699.3 4409.39 -1732.63 4407.06L-1733.88 4425.01ZM-1609.96 4425.01C-1605.68 4424.72 -1602.26 4424.41 -1599.7 4424.11C-1598.43 4423.96 -1597.27 4423.79 -1596.28 4423.61C-1595.55 4423.47 -1594.05 4423.18 -1592.65 4422.53C-1592.23 4422.33 -1591.56 4421.99 -1590.83 4421.44C-1590.17 4420.93 -1588.91 4419.84 -1588.04 4417.98C-1587.02 4415.78 -1586.87 4413.17 -1587.84 4410.74C-1588.67 4408.67 -1590.03 4407.45 -1590.75 4406.89C-1592.12 4405.82 -1593.51 4405.38 -1593.92 4405.24C-1594.56 4405.04 -1595.16 4404.9 -1595.63 4404.81C-1597.4 4404.46 -1599.89 4404.22 -1602.67 4404.03C-1614.15 4403.22 -1638.21 4402.74 -1671.92 4402.74V4420.74C-1638.16 4420.74 -1614.69 4421.23 -1603.93 4421.98C-1601.15 4422.18 -1599.67 4422.36 -1599.12 4422.47C-1599.01 4422.49 -1599.14 4422.47 -1599.41 4422.38C-1599.46 4422.37 -1600.58 4422.05 -1601.8 4421.1C-1602.44 4420.6 -1603.74 4419.44 -1604.55 4417.43C-1605.5 4415.07 -1605.35 4412.51 -1604.36 4410.38C-1603.52 4408.58 -1602.31 4407.55 -1601.73 4407.11C-1601.09 4406.62 -1600.53 4406.34 -1600.25 4406.21C-1599.39 4405.81 -1598.88 4405.78 -1599.59 4405.92C-1600.03 4406 -1600.76 4406.11 -1601.83 4406.24C-1603.96 4406.49 -1607.06 4406.77 -1611.21 4407.06L-1609.96 4425.01ZM-1671.92 4402.74C-1705.63 4402.74 -1729.69 4403.22 -1741.16 4404.03C-1743.95 4404.22 -1746.44 4404.46 -1748.2 4404.81C-1748.68 4404.9 -1749.28 4405.04 -1749.92 4405.24C-1750.33 4405.38 -1751.71 4405.82 -1753.09 4406.89C-1753.81 4407.45 -1755.16 4408.67 -1755.99 4410.74C-1756.97 4413.16 -1756.82 4415.78 -1755.8 4417.97C-1754.93 4419.84 -1753.66 4420.93 -1753 4421.43C-1752.28 4421.99 -1751.61 4422.33 -1751.19 4422.53C-1749.78 4423.18 -1748.28 4423.47 -1747.56 4423.61C-1746.56 4423.79 -1745.4 4423.96 -1744.13 4424.11C-1741.58 4424.41 -1738.16 4424.72 -1733.88 4425.01L-1732.63 4407.06C-1736.78 4406.77 -1739.87 4406.49 -1742.01 4406.24C-1743.08 4406.11 -1743.8 4406 -1744.25 4405.92C-1744.95 4405.78 -1744.44 4405.81 -1743.59 4406.21C-1743.31 4406.34 -1742.75 4406.62 -1742.1 4407.11C-1741.53 4407.55 -1740.31 4408.58 -1739.48 4410.38C-1738.48 4412.52 -1738.34 4415.07 -1739.29 4417.44C-1740.09 4419.44 -1741.4 4420.6 -1742.04 4421.1C-1743.26 4422.05 -1744.38 4422.37 -1744.42 4422.38C-1744.69 4422.47 -1744.82 4422.49 -1744.71 4422.47C-1744.17 4422.36 -1742.68 4422.18 -1739.91 4421.98C-1729.15 4421.23 -1705.68 4420.74 -1671.92 4420.74V4402.74ZM3888.54 958.8C3898.98 958.152 3908.33 958.25 3917.28 958.497C3926.11 958.741 3934.92 959.147 3943.6 959.052C3961.41 958.856 3979.43 956.566 4002.05 946.86L3994.95 930.319C3974.96 938.897 3959.38 940.877 3943.4 941.053C3935.19 941.143 3927.07 940.76 3917.78 940.504C3908.61 940.251 3898.64 940.138 3887.43 940.835L3888.54 958.8ZM4002.05 946.86C4048.05 927.115 4056.64 895.315 4079.99 857.595L4064.68 848.121C4038.86 889.834 4034.15 913.495 3994.95 930.319L4002.05 946.86ZM4178.28 824.533C4218.99 842.374 4249.01 860.534 4273.7 885.581C4298.4 910.639 4318.29 943.124 4337.9 990.391L4354.53 983.494C4334.4 934.979 4313.41 900.224 4286.52 872.944C4259.61 845.653 4227.33 826.377 4185.5 808.047L4178.28 824.533ZM4079.63 858.138C4080.45 856.997 4081.27 855.872 4082.06 854.767L4067.48 844.222C4066.68 845.329 4065.87 846.446 4065.05 847.578L4079.63 858.138ZM4082.06 854.767C4089.26 844.813 4095.17 836.659 4101.1 830.135C4106.95 823.694 4112.41 819.328 4118.41 816.713C4130.13 811.607 4146.85 811.958 4178.54 824.645L4185.23 807.935C4152.46 794.815 4129.84 792.098 4111.22 800.212C4102.06 804.206 4094.6 810.521 4087.78 818.027C4081.03 825.449 4074.5 834.506 4067.48 844.223L4082.06 854.767ZM4337.8 990.151C4341.74 1000.45 4345.5 1010.23 4349.1 1019.59L4365.9 1013.13C4362.29 1003.76 4358.54 994.008 4354.62 983.734L4337.8 990.151ZM4349.1 1019.59C4376.44 1090.69 4394.62 1137.96 4410.43 1214.27L4428.06 1210.62C4411.92 1132.75 4393.27 1084.29 4365.9 1013.12L4349.1 1019.59ZM4410.49 1214.52C4424.27 1272.76 4426.76 1296.05 4430.36 1329.58L4448.26 1327.65C4444.6 1293.62 4442.01 1269.55 4428 1210.38L4410.49 1214.52ZM4430.36 1329.58C4430.97 1335.2 4431.6 1341.12 4432.33 1347.54L4450.21 1345.52C4449.49 1339.16 4448.86 1333.28 4448.26 1327.65L4430.36 1329.58ZM4432.27 1346.62L4432.27 1347.08L4450.27 1346.92L4450.27 1346.45L4432.27 1346.62ZM4432.27 1347V1347.03H4450.27V1347H4432.27ZM4432.27 1347.14C4432.55 1370.21 4432.7 1383.27 4432.27 1406.38L4450.27 1406.71C4450.71 1383.31 4450.55 1370.02 4450.27 1346.93L4432.27 1347.14ZM2831.85 1322.09C2831.59 1322.16 2831.33 1322.21 2831.06 1322.23L2829.88 1304.26C2828.93 1304.33 2827.98 1304.49 2827.08 1304.74L2831.85 1322.09ZM3541.06 941.268C3537.3 941.278 3533.71 942.792 3531.09 945.472L3543.95 958.067C3543.2 958.832 3542.17 959.265 3541.1 959.268L3541.06 941.268ZM3713.07 940.826C3713.03 940.824 3712.96 940.821 3712.88 940.82C3712.8 940.818 3712.71 940.817 3712.63 940.817C3712.6 940.817 3712.57 940.817 3712.55 940.817C3712.55 940.817 3712.54 940.818 3712.53 940.818C3712.53 940.818 3712.53 940.818 3712.53 940.818C3712.53 940.818 3712.53 940.818 3712.54 940.818C3712.54 940.818 3712.55 940.818 3712.56 940.818L3712.6 958.817C3712.65 958.817 3712.69 958.817 3712.72 958.817C3712.73 958.817 3712.72 958.817 3712.72 958.817C3712.71 958.817 3712.69 958.817 3712.67 958.817C3712.6 958.817 3712.54 958.816 3712.47 958.815C3712.42 958.814 3712.38 958.812 3712.37 958.812L3713.07 940.826ZM4399.86 1684.64C4406.15 1684.62 4411.65 1680.43 4413.33 1674.38L4395.98 1669.57C4396.46 1667.84 4398.03 1666.64 4399.83 1666.64L4399.86 1684.64ZM3953.7 2044.36C3961.62 2044.63 3968.18 2038.29 3968.18 2030.37H3950.18C3950.18 2028.11 3952.06 2026.3 3954.32 2026.38L3953.7 2044.36ZM4436.74 1739.34C4437.32 1737.67 4438.93 1736.58 4440.7 1736.66L4439.87 1754.64C4446.06 1754.93 4451.71 1751.11 4453.74 1745.26L4436.74 1739.34ZM3062.43 1697.36C3058.87 1686.83 3045.04 1684.45 3038.16 1693.2L3052.32 1704.32C3050.35 1706.82 3046.4 1706.14 3045.38 1703.13L3062.43 1697.36ZM3970.8 888.098C3974.49 887.823 3977.98 886.091 3980.43 883.224L3966.74 871.539C3967.45 870.701 3968.43 870.225 3969.46 870.148L3970.8 888.098ZM3979.28 2111.17C3978.25 2111.15 3977.27 2110.73 3976.54 2110L3989.28 2097.28C3986.73 2094.73 3983.3 2093.26 3979.7 2093.18L3979.28 2111.17Z" fill="black" fill-opacity="0.14" mask="url(#path-3-inside-1_304_52)"/>
<path d="M3383.51 1536.29C3355.72 1527.74 3345.73 1497.98 3363.47 1476.59C3372.13 1466.13 3397.91 1459.19 3428.13 1459.19C3488.4 1459.19 3550.26 1503.75 3550.26 1547.19C3550.26 1586.08 3515.13 1592.91 3455.05 1565.69C3427.1 1553.03 3394.9 1539.8 3383.51 1536.29Z" fill="#2D2D2E"/>
<path d="M3366.93 1479.46C3370.35 1475.33 3377.82 1471.29 3388.88 1468.31C3399.74 1465.39 3413.34 1463.69 3428.13 1463.69C3457.22 1463.69 3486.85 1474.47 3509.17 1490.55C3531.64 1506.74 3545.76 1527.56 3545.76 1547.19C3545.76 1556.27 3543.71 1562.94 3540.23 1567.63C3536.78 1572.25 3531.59 1575.4 3524.33 1576.81C3509.47 1579.7 3486.76 1575.11 3456.9 1561.59L3456.9 1561.59C3428.97 1548.94 3396.54 1535.59 3384.84 1531.99L3384.84 1531.99C3372.23 1528.11 3363.95 1519.54 3360.68 1509.82C3357.43 1500.14 3359.04 1488.97 3366.93 1479.46ZM3366.93 1479.46L3363.48 1476.6L3366.93 1479.46Z" stroke="black" stroke-opacity="0.14" stroke-width="9"/>
<path d="M3648.25 1642.58C3682.8 1648.2 3691.11 1644.01 3719.53 1606.71C3737.21 1583.49 3758.07 1564.49 3765.86 1564.49C3773.66 1564.49 3796.81 1585.37 3817.29 1610.9C3851.02 1652.94 3857.47 1656.21 3885.46 1645.55C3919.3 1632.66 3938.94 1648.06 3927.32 1678.39C3910.18 1723.12 3833.9 1718.92 3790.69 1670.88L3771.61 1649.67C3769.74 1647.6 3766.55 1647.45 3764.5 1649.34L3738.11 1673.68C3697.63 1711.04 3672.35 1718.46 3638.42 1702.99C3580.7 1676.64 3587.84 1632.77 3648.25 1642.58Z" fill="#2D2D2E"/>
<path d="M3647.53 1647.02C3664.84 1649.84 3676.86 1650.47 3688.21 1644.76C3699.24 1639.21 3709.02 1627.94 3723.11 1609.44L3723.11 1609.44C3731.81 1598.01 3741.26 1587.66 3749.44 1580.22C3753.53 1576.49 3757.21 1573.57 3760.26 1571.6C3761.78 1570.62 3763.06 1569.93 3764.09 1569.5C3765.17 1569.05 3765.72 1568.99 3765.86 1568.99C3765.86 1568.99 3765.89 1568.99 3765.98 1569C3766.07 1569.02 3766.19 1569.04 3766.35 1569.08C3766.68 1569.17 3767.12 1569.32 3767.67 1569.56C3768.78 1570.05 3770.17 1570.82 3771.84 1571.91C3775.16 1574.1 3779.24 1577.34 3783.81 1581.46C3792.92 1589.69 3803.67 1601.11 3813.78 1613.72L3813.78 1613.72C3822.21 1624.23 3829.05 1632.45 3834.98 1638.66C3840.9 1644.85 3846.15 1649.29 3851.48 1652C3862.7 1657.7 3873.02 1655.11 3887.06 1649.76L3887.06 1649.76C3903.47 1643.51 3914.86 1644.75 3920.66 1649.3C3926.07 1653.54 3928.62 1662.42 3923.11 1676.78C3915.51 1696.62 3894.56 1706.34 3869.03 1704.93C3843.6 1703.53 3814.84 1691 3794.03 1667.87C3794.03 1667.87 3794.03 1667.87 3794.03 1667.87L3774.95 1646.66C3771.41 1642.73 3765.34 1642.44 3761.45 1646.03L3735.06 1670.37L3735.06 1670.37C3714.96 1688.92 3699.15 1699.54 3684.54 1703.83C3670.21 1708.04 3656.54 1706.31 3640.29 1698.89C3626.28 1692.5 3616.51 1685.17 3610.54 1678.14C3604.53 1671.06 3602.7 1664.7 3603.48 1659.95C3604.22 1655.4 3607.54 1651.11 3614.71 1648.38C3621.98 1645.61 3632.88 1644.65 3647.53 1647.02ZM3647.53 1647.02L3648.25 1642.58L3647.53 1647.02Z" stroke="black" stroke-opacity="0.14" stroke-width="9"/>
<path d="M4200.61 1627.91C4208.57 1641.34 4231.75 1653.57 4265.94 1653.57C4284.76 1653.57 4301.58 1651.67 4315.23 1648.32C4328.99 1644.94 4339.11 1640.19 4344.98 1634.8C4347.88 1632.14 4349.6 1629.46 4350.36 1626.85C4351.11 1624.28 4351.03 1621.47 4349.81 1618.29C4347.28 1611.71 4339.84 1603.62 4324.98 1594.67C4289.6 1576.99 4257.55 1575.81 4225.39 1588.8L4200.61 1627.91ZM4200.61 1627.91C4196.77 1621.43 4196.39 1614.65 4199.82 1608.17M4200.61 1627.91L4199.82 1608.17M4199.82 1608.17C4203.37 1601.46 4211.33 1594.48 4225.39 1588.8L4199.82 1608.17Z" fill="#F19596" stroke="#F0898A" stroke-width="9"/>
<path d="M3949.45 1464.46L3949.3 1464.36L3949.13 1464.27C3861.6 1417.06 3791.87 1309.51 3777.16 1198.16C3767.26 1123.17 3784.75 1059.81 3833.44 995.95L3833.56 995.793L3833.67 995.626C3837.35 989.797 3846.93 979.344 3857.15 969.504C3862.19 964.644 3867.28 960.043 3871.7 956.365C3876.23 952.599 3879.75 950.063 3881.76 949.06C3881.76 949.059 3881.77 949.057 3881.77 949.055C3881.79 949.048 3881.84 949.032 3881.93 949.017C3882.08 948.99 3882.3 948.969 3882.63 948.968C3906.69 948.891 3920.45 946.949 3933.31 945.135C3939.41 944.274 3945.31 943.442 3952 942.852L3952.14 942.84L3952.27 942.82C3977.42 939.067 3995.68 933.092 4010.45 923.919C4025.23 914.732 4036.17 902.547 4046.97 886.958C4047.56 886.105 4048.06 885.178 4048.45 884.215C4050.56 879.023 4052.41 874.048 4054.19 869.253C4062.61 846.579 4069.53 827.958 4095.17 809.737L4095.17 809.735C4108.59 800.191 4130.57 795.228 4164.15 804.231C4265.73 846.236 4357.09 943.589 4406.1 1167.96C4408.57 1179.27 4411.07 1190.46 4413.53 1201.48C4423.73 1247.11 4433.3 1289.96 4437.75 1327.56C4443.31 1374.46 4440.67 1411.64 4422.74 1435.42L4422.63 1435.56L4422.54 1435.7C4407.51 1459.13 4380.82 1471.75 4341.95 1482.33C4323.56 1487.34 4302.72 1491.83 4279.43 1496.84L4275.68 1497.65C4250.91 1502.98 4223.51 1508.95 4193.72 1516.73C4193.22 1516.86 4192.9 1516.9 4192.54 1516.91C4185.48 1516.95 4144.63 1516.88 4095.47 1510.23C4046.16 1503.55 3989.18 1490.34 3949.45 1464.46Z" fill="#BE9571" stroke="#B4855C" stroke-width="9"/>
<path d="M3312.23 1655.95C3288.47 1656.15 3265.52 1651.14 3252.54 1641.65C3241.61 1633.64 3238.48 1623.48 3241.43 1613.83C3244.5 1603.81 3254.49 1593.16 3272.34 1585.67C3317.5 1576.98 3355.21 1582.32 3376.82 1603.89C3384.29 1611.35 3386.86 1617.21 3386.36 1622.23C3385.85 1627.35 3381.98 1633.34 3372.2 1640.6C3359.04 1650.37 3335.98 1655.75 3312.23 1655.95Z" fill="#F19596" stroke="#F0898A" stroke-width="9"/>
<path d="M3425.26 1000.36C3377.32 1034.32 3355.03 1055.81 3317.77 1107.98C3317.21 1108.76 3316.29 1109.25 3315.33 1109.24C3302.25 1109.02 3295.66 1105.11 3286.71 1091.37C3286.53 1091.1 3286.4 1090.8 3286.32 1090.49C3279.6 1064.48 3280.36 1051.31 3286.37 1030.27C3286.41 1030.1 3286.48 1029.93 3286.56 1029.77C3299.99 1002.31 3310.56 995.079 3329.04 981.257C3355.04 966.001 3371.44 962.46 3401.65 962.966C3401.93 962.97 3402.22 963.017 3402.49 963.101C3427.54 970.908 3427.94 980.698 3426.53 998.143C3426.46 999.027 3425.99 999.846 3425.26 1000.36Z" fill="#FBA1A2" stroke="#272728"/>
<path d="M4057.49 1567.28C4030.58 1578.3 4004.02 1561.63 4004.19 1533.82C4004.28 1520.23 4019.82 1498.51 4043.2 1479.32C4089.81 1441.07 4165.87 1436.27 4193.36 1469.87C4217.98 1499.95 4195.13 1527.53 4131.42 1544.61C4101.8 1552.56 4068.52 1562.76 4057.49 1567.28Z" fill="#2D2D2E"/>
<path d="M4057.3 1566.81L4057.3 1566.81C4043.98 1572.27 4030.78 1570.86 4020.95 1564.69C4011.12 1558.52 4004.61 1547.56 4004.69 1533.83C4004.73 1527.19 4008.56 1518.47 4015.37 1508.96C4022.15 1499.48 4031.85 1489.28 4043.51 1479.71C4066.73 1460.65 4097.3 1449.92 4125.48 1448.15C4153.69 1446.37 4179.37 1453.56 4192.97 1470.18C4199.08 1477.65 4202.21 1484.91 4202.53 1491.86C4202.84 1498.79 4200.36 1505.48 4195.13 1511.79C4184.63 1524.46 4163.12 1535.59 4131.29 1544.13L4131.42 1544.61L4131.29 1544.13C4101.67 1552.07 4068.36 1562.28 4057.3 1566.81Z" stroke="black" stroke-opacity="0.14"/>
</g>
<path d="M7380.96 694.204C7399.78 743.227 7157.64 1335.29 7083.51 1423.81C7081.16 1426.81 7079.03 1429.77 7077.05 1433.1C7036.17 1501.47 7012.23 1485.5 6970.44 1427.18C6900.05 1351.66 6650.96 743.915 6670.04 694.219C6702.25 610.363 6773.86 654.733 6838.05 798.329C6870.44 870.792 6920.38 982.662 6954.63 1059.4L6954.65 1059.45L6964.34 1081.16L7025.47 1218.17L7086.61 1081.16L7096.3 1059.45C7130.55 982.712 7180.5 870.808 7212.9 798.329C7250.77 713.613 7291.22 663.433 7324.64 653.744C7347.89 646.976 7367.74 659.795 7380.96 694.204Z" fill="white"/>
<path d="M6167.01 984.679C6112.32 872.019 6162.85 761.23 6304.56 683.101C6374.86 644.344 6436 641.57 6458.62 676.129C6481.59 711.216 6464.2 748.202 6418.84 760.733C6247.57 808.062 6201.52 971.382 6364.25 954.356C6426.56 947.842 6458.48 959.11 6468.67 991.223C6480.12 1027.32 6449.25 1057.84 6379.45 1079.42C6248.48 1119.9 6213.41 1152.14 6207.23 1237.73C6203.26 1292.65 6204.61 1296.79 6234.69 1322.13C6271.38 1353.02 6315.99 1356.72 6371.57 1333.49C6405.56 1319.27 6409.91 1319.51 6433.35 1336.96C6507 1391.72 6429.09 1477.8 6305.71 1478C6183.8 1478.21 6076 1373.24 6076 1254.32C6076 1196.11 6104.69 1124.11 6147.09 1075.9L6188.46 1028.86L6167.01 984.679Z" fill="white"/>
<path fill-rule="evenodd" clip-rule="evenodd" d="M5374.56 763.454C5350 824.729 5310.56 994.884 5286.94 1141.54C5248.6 1379.34 5248.49 1412.72 5285.8 1450C5320.59 1484.73 5345.4 1486.31 5432.8 1459.41C5720.83 1370.73 5899.62 1188.2 5875.9 1007.03C5852.56 829.047 5667.42 652 5504.59 652C5430.77 652 5413.17 667.084 5374.56 763.454ZM5413.62 1254.68C5414.06 1185.05 5488.57 853.042 5512.38 814.572C5532.95 781.36 5622.51 832.479 5675.12 907.455C5769.01 1041.33 5709.19 1168.28 5503.29 1272.2C5414.7 1316.9 5413.2 1316.62 5413.62 1254.68Z" fill="white"/>
<path d="M0.5 1136C0.5 1020.48 80.7268 769.711 156 710.5C258.675 629.747 379.237 634.188 450.201 724.413C519.535 812.512 523.153 868.298 461.112 892.104C430.726 903.759 401.059 889.204 374.873 849.795C310.455 752.803 235.542 774.29 175.24 907.101C88.0612 1099.15 115.822 1363.42 219.023 1323.82C242.226 1314.92 281.446 1280.88 311.5 1222C367.5 1080 510.5 1099.5 438.019 1287.72C360.121 1460.41 202.145 1529.7 86.5141 1441.93C27.1795 1396.89 0.5 1228.57 0.5 1136Z" fill="white"/>
<path d="M1673.16 844.962C1581.62 844.962 1527.51 799.504 1549.83 741.342C1562.97 707.069 1608.97 702.181 1809.98 713.615C1944.26 721.292 2072.1 742.447 2094.06 760.647C2161.9 816.958 2113.26 872.579 1996.16 872.579H1888.62L1888.07 1003.76C1887.19 1211.91 1839.65 1486.84 1800.34 1511.14C1779.35 1524.1 1749.07 1518.13 1727.77 1496.87C1698.52 1467.62 1697.14 1417.91 1720.87 1247.32C1737.17 1130.14 1750.51 991.692 1750.51 939.634C1750.51 854.352 1742.83 844.962 1673.16 844.962Z" fill="white"/>
<path fill-rule="evenodd" clip-rule="evenodd" d="M820.462 692.211C748.504 764.154 726.82 807.182 733.449 864.819C744.029 956.894 810.96 966.753 853.03 882.438C869.245 849.878 899.106 803.26 919.354 778.874C963.081 726.208 1123.88 719.857 1164.81 769.181C1207.52 820.632 1233.01 943.969 1213.6 1005.17C1198.35 1053.22 1183.68 1056.15 1074.43 1032.84C973.771 1011.38 930.402 1016.49 827.589 1061.95C688.174 1123.62 644.116 1214.87 697.373 1331.74C729.444 1402.08 876.316 1480.16 976.533 1480.16C1007.64 1480.16 1056.09 1494.54 1084.26 1512.14C1171.17 1566.38 1209.2 1523.35 1287.9 1281.78C1436.1 826.79 1356.85 598.424 1050.26 597.015C933.8 596.491 903.746 608.946 820.462 692.211ZM1009.54 1309.23C872.09 1319.12 792.397 1273.88 841.98 1214.12C860.764 1191.5 928.11 1176.37 1009.98 1176.37C1135.89 1176.37 1145.95 1181.26 1137.83 1238.51C1130.45 1290.37 1109.24 1302.05 1009.54 1309.23Z" fill="white"/>
<defs>
<clipPath id="clip0_304_52">
<rect width="2897" height="2316" fill="white" transform="translate(2197)"/>
</clipPath>
</defs>
</svg>
