<svg width="2897" height="2316" viewBox="0 0 2897 2316" fill="none" xmlns="http://www.w3.org/2000/svg">
<g clip-path="url(#clip0_302_2)">
<mask id="mask0_302_2" style="mask-type:alpha" maskUnits="userSpaceOnUse" x="60" y="84" width="2765" height="2136">
<path d="M967.697 2060.02L1113.76 2023.45L1174.63 2011.26L1442.42 2047.83L1783.24 2072.21L2002.34 2218.48L2227.53 2157.54L2586.61 1846.71L2811.8 1383.51L2823.97 1048.29L2732.68 719.179L2537.92 463.2L2221.44 225.505L1752.81 85.3262L1351.12 121.895L955.525 195.031L651.218 243.789L225.189 426.631L91.294 548.526L60.8633 633.852L97.3801 737.463L176.5 749.653L261.706 713.084L541.668 572.905L371.256 908.116L298.223 1030.01L213.017 1145.81L206.931 1279.89L304.309 1365.22L456.462 1346.94L639.046 1279.89L906.836 1292.08H1028.56L1010.3 1450.55L894.664 1602.92L797.286 1700.43L754.683 1877.18L821.63 2011.26L967.697 2060.02Z" fill="#D9D9D9" stroke="black"/>
</mask>
<g mask="url(#mask0_302_2)">
<rect x="-328.648" y="-511.958" width="3907.3" height="2888.91" fill="white"/>
</g>
<mask id="path-3-inside-1_302_2" fill="white">
<path fill-rule="evenodd" clip-rule="evenodd" d="M1464.27 66.6261C1369.86 77.7755 1249.27 104.59 1148.83 136.787C1110.28 149.141 1041.94 162.63 996.958 166.76C868.33 178.565 642.934 226.626 506.947 271.223C159.513 385.198 -25.3089 563.331 50.8511 710.824C72.4175 752.579 123.272 780.634 177.398 780.634C220.379 780.634 304.905 740.494 407.129 671.561C441.675 648.268 472.12 631.386 474.784 634.053C477.447 636.709 468.475 654.574 454.853 673.737C420.33 722.278 361.823 842.582 335.572 918.966C320.396 963.143 299.32 995.292 267.823 1022.29C141.766 1130.35 141.147 1312.27 266.597 1379.03C334.894 1415.38 415.062 1408.11 508.349 1357.15C556.448 1337.77 583.539 1326.87 632.463 1313.41C632.788 1313.33 633.131 1313.27 633.467 1313.25C675.035 1310.52 704.844 1310.99 763.302 1313.28C859.685 1313.09 953.007 1317 970.671 1321.95C999.563 1330.04 1002.8 1336.2 1002.8 1382.98C1002.8 1439.53 972.482 1482.53 833.597 1622.98C758.968 1698.44 723.031 1771.18 722.669 1847.43C722.33 1919.98 738.277 1958.95 790.231 2012.49C869.019 2093.69 1010.83 2111.44 1122.98 2054.15C1174.29 2027.93 1185.12 2028.66 1324.08 2067.54C1397.81 2088.18 1456.29 2094.6 1601.02 2097.96L1782.49 2102.17C1783.78 2102.2 1785 2102.73 1785.91 2103.64L1836.7 2154.49C1930.83 2248.77 2077.7 2267.8 2207.42 2202.54C2287.24 2162.4 2453.72 2028.8 2542.93 1933.28C2678.59 1788.07 2776.44 1612.61 2826.94 1424.09C2863.64 1287 2863.53 1052.64 2826.67 915.176C2797.85 807.671 2740.25 680.359 2677.86 586.238C2515.99 342.016 2220.66 153.002 1895.09 85.2396C1790.32 63.4438 1571.39 53.9792 1464.27 66.6261ZM1481.79 121.145C1133.56 171.089 873.447 291.978 664.933 500.787C537.684 628.215 449.806 766.162 390.504 931.601C366.239 999.282 348.341 1028.02 308.62 1063.03C174.758 1181.03 206.699 1342.2 363.961 1342.2C409.839 1342.2 444.981 1331.96 510.604 1299.5C596.659 1256.91 597.407 1256.78 756.047 1255.72C843.574 1255.13 939.42 1258.77 969.059 1263.8C1021.39 1272.69 1023.36 1271.93 1037.58 1237.57C1050.88 1205.4 1049.06 1197.13 1017.55 1146.42C965.952 1063.41 952.236 1020.31 959.678 964.699C975.52 846.454 1108.62 812.795 1321.26 873.28C1383.52 890.993 1422 892.924 1584.7 886.489C1659.09 886.027 1700.76 884.517 1773.13 879.123C1774.46 879.024 1775.72 878.396 1776.58 877.382L1823.48 822.424C1885.62 749.631 1933.27 728.666 1997.32 745.934C2108.94 776.036 2213.68 934.643 2271.35 1160.86C2298.21 1266.2 2300.71 1294.75 2296.48 1447.49C2292.94 1574.95 2286.21 1633.14 2269.4 1681.48L2248.24 1742.3C2247.51 1744.39 2245.5 1745.76 2243.29 1745.65L2155.64 1741.61C2030.71 1735.85 1969.28 1755.03 1901.18 1821.1C1785.44 1933.41 1802.08 2080.31 1938.43 2149.97C1997.68 2180.23 2101.55 2180.04 2168.68 2149.53C2261.77 2107.22 2392.54 2006.71 2495.31 1898.45C2683.87 1699.86 2783.22 1480.26 2798.26 1228.86C2811.36 1009.78 2759.38 815.311 2638.67 631.807C2456.67 355.178 2149.49 172.996 1785.55 125.848C1701.15 114.909 1542.39 112.464 1481.79 121.145ZM792.042 254.423C462.167 324.888 253.547 416.014 141.194 538.704C83.037 602.208 74.3916 658.166 116.263 700.096C153.32 737.206 215.333 723.67 329.555 653.521C382.291 621.137 452.832 581.933 486.315 566.396C522.227 549.737 586.694 500.19 643.566 445.531C696.57 394.581 781.749 325.426 832.861 291.837C935.343 224.485 934.747 223.935 792.042 254.423ZM829.73 1722.31C751.783 1821.54 773.466 1945.85 878.027 1999.27C914.863 2018.09 940.822 2022.22 998.885 2018.52C1104.37 2011.8 1108.91 1999.21 1026.81 1941.21C943.45 1882.36 900.189 1828.28 873.681 1749.86L856.907 1700.25C855.635 1696.48 850.694 1695.63 848.239 1698.76L829.73 1722.31ZM-4058.63 4415.69C-4044.09 4418.48 -4023.06 4418.38 -4011.89 4415.45C-4000.73 4412.53 -4012.62 4410.23 -4038.32 4410.36C-4064.02 4410.49 -4073.16 4412.89 -4058.63 4415.69ZM-3930.25 4416.04C-3896.51 4418.4 -3841.31 4418.4 -3807.59 4416.04C-3773.85 4413.67 -3801.45 4411.74 -3868.92 4411.74C-3936.39 4411.74 -3963.98 4413.67 -3930.25 4416.04ZM1064.89 1395.24C1076.48 1270.87 1132.48 1164.15 1248.06 1046.17L1340.52 951.769C1341.46 950.812 1342.74 950.271 1344.08 950.268L1515.58 949.817C1515.65 949.817 1515.65 949.816 1515.72 949.819C1517.96 949.907 1623.39 954.013 1690.99 949.817C1734.28 947.13 1758.89 956.874 1801.5 938.589C1844.1 920.305 1850.75 892.575 1875.34 852.858C1876.16 851.722 1876.97 850.601 1877.77 849.495C1906.21 810.154 1920.42 790.483 1984.89 816.29C2067.43 852.461 2109.48 891.161 2149.21 986.943C2153.14 997.23 2156.89 1006.99 2160.5 1016.36C2187.86 1087.49 2206.27 1135.36 2222.25 1212.45C2236.14 1271.15 2238.68 1294.83 2242.31 1328.62C2242.91 1334.24 2243.55 1340.14 2244.27 1346.53L2244.27 1347V1347.03C2244.55 1370.11 2244.71 1383.29 2244.27 1406.55L2236.8 1500.14C2232.69 1551.62 2224.22 1612.16 2217.98 1634.68L2207.65 1671.97C2207.05 1674.13 2205.09 1675.63 2202.84 1675.64L2110 1675.84C2034.32 1676 2001.96 1681.64 1960.79 1701.86C1837.06 1762.6 1762.18 1866.63 1762.18 1977.8V2030.37C1762.18 2033.2 1759.84 2035.47 1757.01 2035.37L1578.18 2029.26C1377.66 2022.42 1281.22 2002.05 1148.03 1938.45C1073.61 1902.91 976.56 1825.12 954.012 1782.92C907.456 1695.81 924.921 1605.35 1003.01 1529.19C1054.72 1478.75 1057.71 1472.27 1064.89 1395.24Z"/>
</mask>
<path fill-rule="evenodd" clip-rule="evenodd" d="M1464.27 66.6261C1369.86 77.7755 1249.27 104.59 1148.83 136.787C1110.28 149.141 1041.94 162.63 996.958 166.76C868.33 178.565 642.934 226.626 506.947 271.223C159.513 385.198 -25.3089 563.331 50.8511 710.824C72.4175 752.579 123.272 780.634 177.398 780.634C220.379 780.634 304.905 740.494 407.129 671.561C441.675 648.268 472.12 631.386 474.784 634.053C477.447 636.709 468.475 654.574 454.853 673.737C420.33 722.278 361.823 842.582 335.572 918.966C320.396 963.143 299.32 995.292 267.823 1022.29C141.766 1130.35 141.147 1312.27 266.597 1379.03C334.894 1415.38 415.062 1408.11 508.349 1357.15C556.448 1337.77 583.539 1326.87 632.463 1313.41C632.788 1313.33 633.131 1313.27 633.467 1313.25C675.035 1310.52 704.844 1310.99 763.302 1313.28C859.685 1313.09 953.007 1317 970.671 1321.95C999.563 1330.04 1002.8 1336.2 1002.8 1382.98C1002.8 1439.53 972.482 1482.53 833.597 1622.98C758.968 1698.44 723.031 1771.18 722.669 1847.43C722.33 1919.98 738.277 1958.95 790.231 2012.49C869.019 2093.69 1010.83 2111.44 1122.98 2054.15C1174.29 2027.93 1185.12 2028.66 1324.08 2067.54C1397.81 2088.18 1456.29 2094.6 1601.02 2097.96L1782.49 2102.17C1783.78 2102.2 1785 2102.73 1785.91 2103.64L1836.7 2154.49C1930.83 2248.77 2077.7 2267.8 2207.42 2202.54C2287.24 2162.4 2453.72 2028.8 2542.93 1933.28C2678.59 1788.07 2776.44 1612.61 2826.94 1424.09C2863.64 1287 2863.53 1052.64 2826.67 915.176C2797.85 807.671 2740.25 680.359 2677.86 586.238C2515.99 342.016 2220.66 153.002 1895.09 85.2396C1790.32 63.4438 1571.39 53.9792 1464.27 66.6261ZM1481.79 121.145C1133.56 171.089 873.447 291.978 664.933 500.787C537.684 628.215 449.806 766.162 390.504 931.601C366.239 999.282 348.341 1028.02 308.62 1063.03C174.758 1181.03 206.699 1342.2 363.961 1342.2C409.839 1342.2 444.981 1331.96 510.604 1299.5C596.659 1256.91 597.407 1256.78 756.047 1255.72C843.574 1255.13 939.42 1258.77 969.059 1263.8C1021.39 1272.69 1023.36 1271.93 1037.58 1237.57C1050.88 1205.4 1049.06 1197.13 1017.55 1146.42C965.952 1063.41 952.236 1020.31 959.678 964.699C975.52 846.454 1108.62 812.795 1321.26 873.28C1383.52 890.993 1422 892.924 1584.7 886.489C1659.09 886.027 1700.76 884.517 1773.13 879.123C1774.46 879.024 1775.72 878.396 1776.58 877.382L1823.48 822.424C1885.62 749.631 1933.27 728.666 1997.32 745.934C2108.94 776.036 2213.68 934.643 2271.35 1160.86C2298.21 1266.2 2300.71 1294.75 2296.48 1447.49C2292.94 1574.95 2286.21 1633.14 2269.4 1681.48L2248.24 1742.3C2247.51 1744.39 2245.5 1745.76 2243.29 1745.65L2155.64 1741.61C2030.71 1735.85 1969.28 1755.03 1901.18 1821.1C1785.44 1933.41 1802.08 2080.31 1938.43 2149.97C1997.68 2180.23 2101.55 2180.04 2168.68 2149.53C2261.77 2107.22 2392.54 2006.71 2495.31 1898.45C2683.87 1699.86 2783.22 1480.26 2798.26 1228.86C2811.36 1009.78 2759.38 815.311 2638.67 631.807C2456.67 355.178 2149.49 172.996 1785.55 125.848C1701.15 114.909 1542.39 112.464 1481.79 121.145ZM792.042 254.423C462.167 324.888 253.547 416.014 141.194 538.704C83.037 602.208 74.3916 658.166 116.263 700.096C153.32 737.206 215.333 723.67 329.555 653.521C382.291 621.137 452.832 581.933 486.315 566.396C522.227 549.737 586.694 500.19 643.566 445.531C696.57 394.581 781.749 325.426 832.861 291.837C935.343 224.485 934.747 223.935 792.042 254.423ZM829.73 1722.31C751.783 1821.54 773.466 1945.85 878.027 1999.27C914.863 2018.09 940.822 2022.22 998.885 2018.52C1104.37 2011.8 1108.91 1999.21 1026.81 1941.21C943.45 1882.36 900.189 1828.28 873.681 1749.86L856.907 1700.25C855.635 1696.48 850.694 1695.63 848.239 1698.76L829.73 1722.31ZM-4058.63 4415.69C-4044.09 4418.48 -4023.06 4418.38 -4011.89 4415.45C-4000.73 4412.53 -4012.62 4410.23 -4038.32 4410.36C-4064.02 4410.49 -4073.16 4412.89 -4058.63 4415.69ZM-3930.25 4416.04C-3896.51 4418.4 -3841.31 4418.4 -3807.59 4416.04C-3773.85 4413.67 -3801.45 4411.74 -3868.92 4411.74C-3936.39 4411.74 -3963.98 4413.67 -3930.25 4416.04ZM1064.89 1395.24C1076.48 1270.87 1132.48 1164.15 1248.06 1046.17L1340.52 951.769C1341.46 950.812 1342.74 950.271 1344.08 950.268L1515.58 949.817C1515.65 949.817 1515.65 949.816 1515.72 949.819C1517.96 949.907 1623.39 954.013 1690.99 949.817C1734.28 947.13 1758.89 956.874 1801.5 938.589C1844.1 920.305 1850.75 892.575 1875.34 852.858C1876.16 851.722 1876.97 850.601 1877.77 849.495C1906.21 810.154 1920.42 790.483 1984.89 816.29C2067.43 852.461 2109.48 891.161 2149.21 986.943C2153.14 997.23 2156.89 1006.99 2160.5 1016.36C2187.86 1087.49 2206.27 1135.36 2222.25 1212.45C2236.14 1271.15 2238.68 1294.83 2242.31 1328.62C2242.91 1334.24 2243.55 1340.14 2244.27 1346.53L2244.27 1347V1347.03C2244.55 1370.11 2244.71 1383.29 2244.27 1406.55L2236.8 1500.14C2232.69 1551.62 2224.22 1612.16 2217.98 1634.68L2207.65 1671.97C2207.05 1674.13 2205.09 1675.63 2202.84 1675.64L2110 1675.84C2034.32 1676 2001.96 1681.64 1960.79 1701.86C1837.06 1762.6 1762.18 1866.63 1762.18 1977.8V2030.37C1762.18 2033.2 1759.84 2035.47 1757.01 2035.37L1578.18 2029.26C1377.66 2022.42 1281.22 2002.05 1148.03 1938.45C1073.61 1902.91 976.56 1825.12 954.012 1782.92C907.456 1695.81 924.921 1605.35 1003.01 1529.19C1054.72 1478.75 1057.71 1472.27 1064.89 1395.24Z" fill="#2D2D2E"/>
<path d="M2060.89 1499.89L2061.59 1495.44L2060.89 1499.89ZM2063.95 1499.39L2061.89 1495.39L2063.95 1499.39ZM1727.83 1445.27L1731.82 1443.18L1727.83 1445.27ZM1731.48 1447.89L1732.18 1443.44L1731.48 1447.89ZM1577.81 1154.14L1581.74 1156.32L1577.81 1154.14ZM1577.75 1158.89L1573.77 1160.98L1577.75 1158.89ZM2239.77 1346.59C2239.77 1346.65 2239.77 1346.72 2239.77 1346.8C2239.77 1346.88 2239.77 1346.97 2239.77 1347.05L2248.77 1346.95C2248.77 1346.88 2248.77 1346.81 2248.77 1346.73C2248.77 1346.65 2248.77 1346.57 2248.77 1346.48L2239.77 1346.59ZM1687.05 947.637L1573.87 1151.96L1581.74 1156.32L1694.92 951.998L1687.05 947.637ZM1573.77 1160.98L1723.85 1447.36L1731.82 1443.18L1581.74 1156.8L1573.77 1160.98ZM1730.78 1452.33L2060.18 1504.33L2061.59 1495.44L1732.18 1443.44L1730.78 1452.33ZM2066.01 1503.39L2246.33 1410.55L2242.21 1402.54L2061.89 1495.39L2066.01 1503.39ZM2060.18 1504.33C2062.18 1504.64 2064.22 1504.32 2066.01 1503.39L2061.89 1495.39C2061.8 1495.44 2061.69 1495.46 2061.59 1495.44L2060.18 1504.33ZM1723.85 1447.36C1725.24 1450.02 1727.81 1451.86 1730.78 1452.33L1732.18 1443.44C1732.03 1443.42 1731.89 1443.32 1731.82 1443.18L1723.85 1447.36ZM1573.87 1151.96C1572.32 1154.76 1572.28 1158.14 1573.77 1160.98L1581.74 1156.8C1581.66 1156.65 1581.66 1156.47 1581.74 1156.32L1573.87 1151.96ZM1464.27 66.6261L1463.21 57.6882L1463.21 57.6882L1464.27 66.6261ZM1148.83 136.787L1151.58 145.357L1151.58 145.357L1148.83 136.787ZM996.958 166.76L997.78 175.723L997.781 175.723L996.958 166.76ZM506.947 271.223L504.142 262.671L504.142 262.672L506.947 271.223ZM50.8511 710.824L42.8543 714.953L42.8547 714.954L50.8511 710.824ZM407.129 671.561L402.097 664.099L402.097 664.099L407.129 671.561ZM474.784 634.053L468.415 640.413L468.422 640.42L468.429 640.427L474.784 634.053ZM454.853 673.737L462.187 678.954L462.189 678.952L454.853 673.737ZM335.572 918.966L327.061 916.041L327.061 916.042L335.572 918.966ZM267.823 1022.29L273.681 1029.13L273.681 1029.13L267.823 1022.29ZM266.597 1379.03L270.825 1371.08L270.825 1371.08L266.597 1379.03ZM508.349 1357.15L504.985 1348.8L504.496 1349L504.034 1349.25L508.349 1357.15ZM763.302 1313.28L762.95 1322.27L763.134 1322.28L763.319 1322.28L763.302 1313.28ZM970.671 1321.95L973.1 1313.28L973.099 1313.28L970.671 1321.95ZM833.597 1622.98L839.996 1629.31L839.997 1629.31L833.597 1622.98ZM722.669 1847.43L713.669 1847.39L713.669 1847.39L722.669 1847.43ZM790.231 2012.49L796.69 2006.22L796.689 2006.22L790.231 2012.49ZM1122.98 2054.15L1127.07 2062.16L1127.07 2062.16L1122.98 2054.15ZM1324.08 2067.54L1326.5 2058.88L1326.5 2058.88L1324.08 2067.54ZM1601.02 2097.96L1601.22 2088.96L1601.22 2088.96L1601.02 2097.96ZM1836.7 2154.49L1843.07 2148.13L1843.07 2148.13L1836.7 2154.49ZM2207.42 2202.54L2203.38 2194.5L2203.38 2194.5L2207.42 2202.54ZM2542.93 1933.28L2536.35 1927.14L2536.35 1927.14L2542.93 1933.28ZM2826.94 1424.09L2835.63 1426.42L2835.63 1426.42L2826.94 1424.09ZM2826.67 915.176L2817.97 917.506L2817.97 917.506L2826.67 915.176ZM2677.86 586.238L2670.36 591.211L2670.36 591.211L2677.86 586.238ZM1895.09 85.2396L1896.93 76.4284L1896.93 76.4283L1895.09 85.2396ZM1481.79 121.145L1480.52 112.236L1480.52 112.236L1481.79 121.145ZM664.933 500.787L671.301 507.146L671.301 507.146L664.933 500.787ZM390.504 931.601L398.976 934.639L398.977 934.638L390.504 931.601ZM308.62 1063.03L314.571 1069.78L314.571 1069.78L308.62 1063.03ZM510.604 1299.5L514.594 1307.56L514.595 1307.56L510.604 1299.5ZM756.047 1255.72L755.987 1246.72L755.987 1246.72L756.047 1255.72ZM969.059 1263.8L970.567 1254.93L970.565 1254.93L969.059 1263.8ZM1037.58 1237.57L1045.89 1241.01L1045.89 1241.01L1037.58 1237.57ZM1017.55 1146.42L1025.2 1141.67L1025.2 1141.67L1017.55 1146.42ZM959.678 964.699L950.758 963.504L950.757 963.505L959.678 964.699ZM1321.26 873.28L1323.72 864.624L1323.72 864.624L1321.26 873.28ZM1584.7 886.489L1584.64 877.489L1584.49 877.49L1584.34 877.496L1584.7 886.489ZM1823.48 822.424L1816.63 816.58L1816.63 816.582L1823.48 822.424ZM1997.32 745.934L1999.66 737.244L1999.66 737.244L1997.32 745.934ZM2271.35 1160.86L2262.63 1163.08L2262.63 1163.08L2271.35 1160.86ZM2296.48 1447.49L2305.48 1447.74L2305.48 1447.74L2296.48 1447.49ZM2269.4 1681.48L2277.9 1684.44L2277.9 1684.44L2269.4 1681.48ZM2155.64 1741.61L2155.23 1750.6L2155.23 1750.6L2155.64 1741.61ZM1901.18 1821.1L1894.91 1814.64L1894.91 1814.64L1901.18 1821.1ZM1938.43 2149.97L1934.33 2157.98L1934.33 2157.98L1938.43 2149.97ZM2168.68 2149.53L2172.41 2157.73L2172.41 2157.73L2168.68 2149.53ZM2495.31 1898.45L2488.78 1892.26L2488.78 1892.26L2495.31 1898.45ZM2798.26 1228.86L2789.27 1228.32L2789.27 1228.32L2798.26 1228.86ZM2638.67 631.807L2646.19 626.861L2646.19 626.861L2638.67 631.807ZM1785.55 125.848L1784.39 134.773L1784.39 134.773L1785.55 125.848ZM792.042 254.423L793.922 263.225L793.922 263.225L792.042 254.423ZM141.194 538.704L147.831 544.783L147.831 544.782L141.194 538.704ZM116.263 700.096L122.631 693.736L116.263 700.096ZM329.555 653.521L324.846 645.852L324.845 645.852L329.555 653.521ZM486.315 566.396L482.527 558.232L482.526 558.233L486.315 566.396ZM643.566 445.531L649.802 452.02L649.802 452.019L643.566 445.531ZM832.861 291.837L837.804 299.359L837.804 299.358L832.861 291.837ZM1248.06 1046.17L1254.48 1052.47L1254.48 1052.47L1248.06 1046.17ZM1064.89 1395.24L1073.85 1396.08L1073.85 1396.08L1064.89 1395.24ZM1003.01 1529.19L1009.29 1535.63L1009.29 1535.63L1003.01 1529.19ZM954.012 1782.92L961.95 1778.68L961.949 1778.68L954.012 1782.92ZM1148.03 1938.45L1144.15 1946.58L1144.15 1946.58L1148.03 1938.45ZM1578.18 2029.26L1578.48 2020.27L1578.48 2020.27L1578.18 2029.26ZM1960.79 1701.86L1964.75 1709.94L1964.75 1709.94L1960.79 1701.86ZM2110 1675.84L2110.02 1684.84L2110.02 1684.84L2110 1675.84ZM2217.98 1634.68L2226.66 1637.08L2226.66 1637.08L2217.98 1634.68ZM2236.8 1500.14L2245.78 1500.86L2245.78 1500.86L2236.8 1500.14ZM2244.27 1406.55L2253.24 1407.26L2253.26 1406.99L2253.27 1406.71L2244.27 1406.55ZM1690.99 949.817L1690.43 940.835L1690.99 949.817ZM829.73 1722.31L822.654 1716.75L822.652 1716.75L829.73 1722.31ZM878.027 1999.27L882.122 1991.25L882.122 1991.25L878.027 1999.27ZM998.885 2018.52L999.457 2027.51L999.458 2027.51L998.885 2018.52ZM1026.81 1941.21L1032 1933.86L1032 1933.86L1026.81 1941.21ZM873.681 1749.86L882.207 1746.98L882.207 1746.98L873.681 1749.86ZM-3930.25 4416.04L-3930.88 4425.01L-3930.88 4425.01L-3930.25 4416.04ZM-3807.59 4416.04L-3808.21 4407.06L-3808.21 4407.06L-3807.59 4416.04ZM1875.34 852.858L1868.05 847.578L1867.86 847.843L1867.68 848.121L1875.34 852.858ZM1984.89 816.29L1988.5 808.047L1988.37 807.988L1988.23 807.935L1984.89 816.29ZM2149.21 986.943L2157.62 983.734L2157.58 983.613L2157.53 983.494L2149.21 986.943ZM2222.25 1212.45L2213.43 1214.27L2213.46 1214.4L2213.49 1214.52L2222.25 1212.45ZM2244.27 1346.53L2253.27 1346.45L2253.27 1345.98L2253.21 1345.52L2244.27 1346.53ZM1877.77 849.495L1885.06 854.767L1885.06 854.767L1877.77 849.495ZM2160.5 1016.36L2152.1 1019.59L2152.1 1019.59L2160.5 1016.36ZM2242.31 1328.62L2233.36 1329.58L2233.36 1329.58L2242.31 1328.62ZM2244.27 1347H2253.27V1346.96L2253.27 1346.92L2244.27 1347ZM2244.27 1347.03H2235.27V1347.09L2235.27 1347.14L2244.27 1347.03ZM632.463 1313.41L634.85 1322.09L632.463 1313.41ZM633.467 1313.25L634.056 1322.23L633.467 1313.25ZM1344.08 950.268L1344.1 959.268L1344.08 950.268ZM1340.52 951.769L1334.09 945.472L1340.52 951.769ZM1515.72 949.819L1516.07 940.826L1515.72 949.819ZM1515.58 949.817L1515.6 958.817L1515.58 949.817ZM2202.84 1675.64L2202.86 1684.64L2202.86 1684.64L2202.84 1675.64ZM2207.65 1671.97L2216.33 1674.38L2207.65 1671.97ZM1757.01 2035.37L1757.32 2026.38L1757.01 2035.37ZM2248.24 1742.3L2239.74 1739.34L2248.24 1742.3ZM2243.29 1745.65L2242.87 1754.64L2243.29 1745.65ZM856.907 1700.25L865.433 1697.36L856.907 1700.25ZM848.239 1698.76L855.316 1704.32L848.239 1698.76ZM1773.13 879.123L1773.8 888.098L1773.13 879.123ZM1776.58 877.382L1783.43 883.224L1776.58 877.382ZM1782.49 2102.17L1782.7 2093.18L1782.49 2102.17ZM1785.91 2103.64L1792.28 2097.28L1785.91 2103.64ZM1463.21 57.6882C1368.17 68.9123 1247.02 95.8621 1146.09 128.216L1151.58 145.357C1251.53 113.319 1371.55 86.6387 1465.32 75.564L1463.21 57.6882ZM1146.09 128.216C1108.23 140.349 1040.53 153.721 996.135 157.798L997.781 175.723C1043.34 171.54 1112.34 157.934 1151.58 145.357L1146.09 128.216ZM996.135 157.798C866.765 169.671 640.704 217.885 504.142 262.671L509.751 279.775C645.165 235.366 869.895 187.459 997.78 175.723L996.135 157.798ZM504.142 262.672C329.751 319.88 195.274 393.452 113.806 471.974C32.4004 550.435 2.11226 636.052 42.8543 714.953L58.8479 706.695C23.4299 638.104 47.4726 560.907 126.297 484.934C205.057 409.023 336.709 336.541 509.752 279.775L504.142 262.672ZM42.8547 714.954C66.2328 760.217 120.53 789.634 177.398 789.634V771.634C126.015 771.634 78.6021 744.941 58.8474 706.694L42.8547 714.954ZM177.398 789.634C201.031 789.634 234.463 778.806 273.908 760.077C313.713 741.177 360.8 713.657 412.161 679.023L402.097 664.099C351.233 698.398 304.946 725.414 266.187 743.817C227.068 762.391 196.746 771.634 177.398 771.634V789.634ZM412.16 679.024C429.282 667.479 445.302 657.582 457.276 650.943C463.301 647.603 468.098 645.201 471.411 643.82C473.12 643.107 474.079 642.817 474.446 642.737C474.656 642.691 474.28 642.803 473.555 642.77C473.043 642.746 470.588 642.589 468.415 640.413L481.152 627.694C478.646 625.184 475.641 624.846 474.374 624.788C472.894 624.721 471.557 624.944 470.611 625.15C468.669 625.574 466.543 626.347 464.483 627.206C460.259 628.968 454.786 631.742 448.548 635.201C435.998 642.159 419.522 652.351 402.097 664.099L412.16 679.024ZM468.429 640.427C467.226 639.227 466.697 637.936 466.47 637.109C466.25 636.308 466.249 635.725 466.253 635.539C466.26 635.208 466.303 635.351 466.064 636.178C465.607 637.756 464.587 640.273 462.883 643.666C459.526 650.349 454.138 659.209 447.518 668.523L462.189 678.952C469.19 669.102 475.099 659.448 478.968 651.744C480.877 647.944 482.452 644.299 483.354 641.181C483.794 639.66 484.207 637.822 484.249 635.931C484.282 634.383 484.128 630.661 481.138 627.68L468.429 640.427ZM447.519 668.521C412.354 717.965 353.5 839.111 327.061 916.041L344.084 921.891C370.147 846.052 428.307 726.591 462.187 678.954L447.519 668.521ZM327.061 916.042C312.338 958.898 292.097 989.63 261.966 1015.46L273.681 1029.13C306.543 1000.95 328.455 967.387 344.084 921.89L327.061 916.042ZM261.966 1015.46C197.062 1071.1 164.135 1146.03 163.895 1216.12C163.654 1286.32 196.306 1351.82 262.369 1386.97L270.825 1371.08C211.437 1339.48 181.674 1280.64 181.895 1216.18C182.116 1151.61 212.528 1081.55 273.681 1029.13L261.966 1015.46ZM262.368 1386.97C334.279 1425.25 417.812 1416.87 512.663 1365.05L504.034 1349.25C412.312 1399.36 335.509 1405.51 270.825 1371.08L262.368 1386.97ZM511.712 1365.5C559.77 1346.13 586.456 1335.4 634.85 1322.09L630.076 1304.74C580.621 1318.34 553.127 1329.4 504.985 1348.8L511.712 1365.5ZM634.056 1322.23C675.145 1319.53 704.579 1319.99 762.95 1322.27L763.654 1304.29C705.109 1301.99 674.924 1301.51 632.878 1304.26L634.056 1322.23ZM763.319 1322.28C811.397 1322.19 858.691 1323.11 896.13 1324.68C914.856 1325.46 931.055 1326.4 943.626 1327.45C956.515 1328.52 964.793 1329.65 968.244 1330.61L973.099 1313.28C967.717 1311.77 957.706 1310.56 945.118 1309.51C932.21 1308.44 915.743 1307.48 896.882 1306.7C859.148 1305.12 811.589 1304.19 763.284 1304.28L763.319 1322.28ZM968.243 1330.61C982.84 1334.7 987.159 1337.5 989.605 1342.15C991.039 1344.87 992.184 1348.97 992.89 1355.78C993.592 1362.55 993.799 1371.3 993.799 1382.98H1011.8C1011.8 1371.27 1011.6 1361.71 1010.79 1353.92C1009.99 1346.16 1008.52 1339.44 1005.53 1333.77C999.139 1321.62 987.394 1317.29 973.1 1313.28L968.243 1330.61ZM993.799 1382.98C993.799 1409.01 987.044 1432.12 962.924 1466.33C938.481 1501 896.707 1546.36 827.198 1616.65L839.997 1629.31C909.372 1559.15 952.199 1512.78 977.636 1476.7C1003.4 1440.16 1011.8 1413.5 1011.8 1382.98H993.799ZM827.198 1616.65C751.57 1693.12 714.046 1767.99 713.669 1847.39L731.669 1847.48C732.016 1774.37 766.366 1703.76 839.996 1629.31L827.198 1616.65ZM713.669 1847.39C713.497 1884.32 717.46 1913.5 728.511 1940.5C739.554 1967.48 757.378 1991.56 783.772 2018.75L796.689 2006.22C771.13 1979.88 755.004 1957.71 745.17 1933.68C735.344 1909.67 731.503 1883.09 731.669 1847.48L713.669 1847.39ZM783.771 2018.75C865.712 2103.21 1011.94 2120.98 1127.07 2062.16L1118.89 2046.13C1009.71 2101.9 872.326 2084.18 796.69 2006.22L783.771 2018.75ZM1127.07 2062.16C1152.28 2049.28 1166.03 2043.81 1190.06 2045.41C1215.39 2047.1 1251.76 2056.65 1321.65 2076.21L1326.5 2058.88C1257.44 2039.55 1218.91 2029.29 1191.26 2027.45C1162.31 2025.52 1144.99 2032.79 1118.88 2046.13L1127.07 2062.16ZM1321.65 2076.21C1396.48 2097.16 1455.87 2103.6 1600.81 2106.96L1601.22 2088.96C1456.71 2085.61 1399.13 2079.21 1326.5 2058.88L1321.65 2076.21ZM1600.81 2106.96L1782.28 2111.17L1782.7 2093.18L1601.22 2088.96L1600.81 2106.96ZM1779.54 2110L1830.34 2160.85L1843.07 2148.13L1792.28 2097.28L1779.54 2110ZM1830.34 2160.85C1927.53 2258.19 2078.69 2277.37 2211.47 2210.58L2203.38 2194.5C2076.7 2258.23 1934.14 2239.34 1843.07 2148.13L1830.34 2160.85ZM2211.47 2210.58C2252.27 2190.06 2314.46 2146.12 2377.29 2095.7C2440.24 2045.17 2504.51 1987.6 2549.51 1939.43L2536.35 1927.14C2492.13 1974.48 2428.56 2031.46 2366.02 2081.66C2303.35 2131.95 2242.39 2174.88 2203.38 2194.5L2211.47 2210.58ZM2549.5 1939.43C2686.15 1793.16 2784.75 1616.39 2835.63 1426.42L2818.24 1421.77C2768.14 1608.82 2671.02 1782.99 2536.35 1927.14L2549.5 1939.43ZM2835.63 1426.42C2854.26 1356.85 2863.44 1263.13 2863.39 1169.77C2863.34 1076.41 2854.07 982.604 2835.36 912.845L2817.97 917.506C2836.13 985.214 2845.34 1077.32 2845.39 1169.78C2845.44 1262.24 2836.32 1354.25 2818.24 1421.77L2835.63 1426.42ZM2835.36 912.845C2806.28 804.387 2748.28 676.185 2685.37 581.266L2670.36 591.211C2732.22 684.533 2789.41 810.955 2817.97 917.506L2835.36 912.845ZM2685.37 581.266C2522 334.795 2224.47 144.603 1896.93 76.4284L1893.26 94.0508C2216.84 161.401 2509.98 349.237 2670.36 591.211L2685.37 581.266ZM1896.93 76.4283C1843.84 65.3833 1762.34 57.5425 1680.95 54.0252C1599.56 50.5079 1517.48 51.281 1463.21 57.6882L1465.32 75.564C1518.17 69.3243 1599.13 68.5063 1680.17 72.0084C1761.22 75.5108 1841.58 83.3002 1893.26 94.051L1896.93 76.4283ZM1480.52 112.236C1130.74 162.402 868.704 283.99 658.564 494.427L671.301 507.146C878.189 299.966 1136.39 179.776 1483.07 130.054L1480.52 112.236ZM658.564 494.427C530.402 622.771 441.793 761.844 382.032 928.565L398.977 934.638C457.819 770.479 544.966 633.66 671.301 507.146L658.564 494.427ZM382.032 928.564C369.977 962.189 359.69 985.592 347.719 1004.81C335.826 1023.9 322.062 1039.18 302.668 1056.28L314.571 1069.78C334.899 1051.86 349.945 1035.27 362.997 1014.32C375.972 993.499 386.767 968.695 398.976 934.639L382.032 928.564ZM302.668 1056.28C234.137 1116.69 206.574 1189.5 218.291 1248.61C224.164 1278.25 239.906 1304.08 264.807 1322.42C289.659 1340.72 323.115 1351.2 363.961 1351.2V1333.2C326.176 1333.2 296.667 1323.53 275.482 1307.93C254.348 1292.36 240.984 1270.53 235.947 1245.12C225.844 1194.14 249.241 1127.37 314.571 1069.78L302.668 1056.28ZM363.961 1351.2C411.809 1351.2 448.392 1340.32 514.594 1307.56L506.613 1291.43C441.571 1323.61 407.87 1333.2 363.961 1333.2V1351.2ZM514.595 1307.56C557.835 1286.17 578.389 1276.12 607.686 1270.9C637.51 1265.58 676.386 1265.25 756.107 1264.72L755.987 1246.72C677.068 1247.25 636.249 1247.52 604.526 1253.18C572.275 1258.93 549.427 1270.24 506.612 1291.43L514.595 1307.56ZM756.107 1264.72C843.751 1264.13 938.815 1267.8 967.553 1272.68L970.565 1254.93C940.025 1249.75 843.398 1246.13 755.987 1246.72L756.107 1264.72ZM967.552 1272.68C980.535 1274.88 990.874 1276.58 999.1 1277.26C1007.25 1277.93 1014.49 1277.74 1020.83 1275.31C1027.58 1272.73 1032.16 1268.07 1035.85 1262.22C1039.33 1256.68 1042.41 1249.43 1045.89 1241.01L1029.26 1234.13C1025.64 1242.89 1023.13 1248.63 1020.62 1252.62C1018.3 1256.3 1016.45 1257.72 1014.39 1258.5C1011.91 1259.45 1007.97 1259.93 1000.58 1259.32C993.278 1258.71 983.747 1257.17 970.567 1254.93L967.552 1272.68ZM1045.89 1241.01C1052.65 1224.69 1056.53 1212.34 1053.16 1197.02C1050.03 1182.77 1040.71 1166.64 1025.2 1141.67L1009.91 1151.17C1025.91 1176.92 1033.25 1190.27 1035.58 1200.88C1037.68 1210.42 1035.82 1218.28 1029.26 1234.13L1045.89 1241.01ZM1025.2 1141.67C973.96 1059.24 961.575 1018.37 968.598 965.893L950.757 963.505C942.897 1022.24 957.943 1067.57 1009.91 1151.18L1025.2 1141.67ZM968.598 965.894C972.335 937.999 982.896 915.554 999.458 898.247C1016.07 880.887 1039.21 868.191 1068.88 860.691C1128.47 845.624 1213.1 851.871 1318.8 881.937L1323.72 864.624C1216.78 834.205 1128.54 827.039 1064.46 843.24C1032.29 851.375 1005.9 865.484 986.454 885.802C966.959 906.172 954.941 932.276 950.758 963.504L968.598 965.894ZM1318.8 881.937C1382.6 900.089 1422.42 901.914 1585.05 895.482L1584.34 877.496C1421.58 883.933 1384.43 881.897 1323.72 864.624L1318.8 881.937ZM1584.75 895.489C1659.33 895.026 1701.2 893.509 1773.8 888.098L1772.46 870.148C1700.31 875.525 1658.85 877.028 1584.64 877.489L1584.75 895.489ZM1783.43 883.224L1830.33 828.266L1816.63 816.582L1769.74 871.539L1783.43 883.224ZM1830.32 828.267C1861.05 792.275 1887.44 770.024 1913.31 758.644C1938.79 747.431 1964.57 746.424 1994.98 754.623L1999.66 737.244C1966.03 728.175 1935.95 729.017 1906.06 742.168C1876.55 755.151 1848.05 779.78 1816.63 816.58L1830.32 828.267ZM1994.98 754.623C2047.75 768.856 2100.27 813.966 2147.06 884.814C2193.72 955.464 2233.98 1050.68 2262.63 1163.08L2280.07 1158.64C2251.06 1044.82 2210.11 947.627 2162.08 874.894C2114.17 802.359 2058.51 753.114 1999.66 737.244L1994.98 754.623ZM2262.63 1163.08C2276.03 1215.66 2283.22 1248.55 2286.61 1287.19C2290.01 1325.99 2289.6 1370.81 2287.48 1447.24L2305.48 1447.74C2307.59 1371.43 2308.04 1325.61 2304.54 1285.61C2301.02 1245.46 2293.53 1211.41 2280.07 1158.64L2262.63 1163.08ZM2287.48 1447.24C2283.94 1574.74 2277.2 1631.65 2260.9 1678.52L2277.9 1684.44C2295.22 1634.63 2301.94 1575.15 2305.48 1447.74L2287.48 1447.24ZM2260.9 1678.52L2239.74 1739.34L2256.74 1745.26L2277.9 1684.44L2260.9 1678.52ZM2243.7 1736.66L2156.06 1732.62L2155.23 1750.6L2242.87 1754.64L2243.7 1736.66ZM2156.06 1732.62C2093.17 1729.72 2045.37 1733.04 2004.42 1745.83C1963.25 1758.69 1929.69 1780.9 1894.91 1814.64L1907.45 1827.56C1940.77 1795.23 1971.97 1774.82 2009.78 1763.01C2047.8 1751.13 2093.18 1747.74 2155.23 1750.6L2156.06 1732.62ZM1894.91 1814.64C1835.5 1872.29 1809.21 1939.72 1816.33 2002.54C1823.46 2065.48 1863.92 2122.01 1934.33 2157.98L1942.52 2141.95C1876.58 2108.26 1840.55 2056.51 1834.21 2000.52C1827.86 1944.39 1851.12 1882.22 1907.45 1827.56L1894.91 1814.64ZM1934.33 2157.98C1965.64 2173.97 2007.97 2181.62 2050.62 2181.54C2093.33 2181.46 2137.41 2173.63 2172.41 2157.73L2164.96 2141.34C2132.83 2155.94 2091.41 2163.46 2050.58 2163.54C2009.7 2163.62 1970.46 2156.22 1942.52 2141.95L1934.33 2157.98ZM2172.41 2157.73C2266.92 2114.76 2398.6 2013.39 2501.84 1904.65L2488.78 1892.26C2386.47 2000.02 2256.63 2099.67 2164.96 2141.34L2172.41 2157.73ZM2501.84 1904.65C2691.72 1704.66 2792.07 1483.11 2807.24 1229.39L2789.27 1228.32C2774.37 1477.42 2676.02 1695.06 2488.78 1892.26L2501.84 1904.65ZM2807.24 1229.39C2820.46 1008.37 2767.96 811.985 2646.19 626.861L2631.15 636.753C2750.79 818.636 2802.26 1011.18 2789.27 1228.32L2807.24 1229.39ZM2646.19 626.861C2462.59 347.789 2152.93 164.366 1786.7 116.922L1784.39 134.773C2146.05 181.626 2450.76 362.567 2631.15 636.754L2646.19 626.861ZM1786.7 116.923C1744.03 111.391 1682.86 108.036 1624.88 107.14C1567.03 106.246 1511.58 107.786 1480.52 112.236L1483.07 130.054C1512.61 125.822 1566.83 124.245 1624.61 125.138C1682.26 126.029 1742.67 129.366 1784.39 134.773L1786.7 116.923ZM790.162 245.622C460.01 316.146 248.936 407.723 134.556 532.626L147.831 544.782C258.158 424.305 464.323 333.63 793.922 263.225L790.162 245.622ZM134.557 532.626C104.883 565.028 86.9022 596.476 82.3233 626.116C77.6578 656.317 87.0799 683.609 109.894 706.455L122.631 693.736C103.574 674.653 96.3837 653.001 100.112 628.864C103.928 604.167 119.348 575.884 147.831 544.783L134.557 532.626ZM109.894 706.455C131.193 727.784 159.422 733.786 195.892 725.823C231.851 717.972 276.977 696.373 334.265 661.19L324.845 645.852C267.911 680.817 224.919 701.061 192.052 708.238C159.696 715.302 138.39 709.518 122.631 693.736L109.894 706.455ZM334.265 661.19C386.873 628.885 457.076 589.885 490.103 574.56L482.526 558.233C448.587 573.981 377.709 613.389 324.846 645.852L334.265 661.19ZM490.102 574.561C527.428 557.246 592.778 506.825 649.802 452.02L637.329 439.042C580.61 493.555 517.027 542.228 482.527 558.232L490.102 574.561ZM649.802 452.019C702.485 401.379 787.235 332.59 837.804 299.359L827.919 284.316C776.263 318.262 690.655 387.783 637.329 439.043L649.802 452.019ZM837.804 299.358C863.325 282.586 882.774 269.749 895.167 260.503C901.267 255.952 906.226 251.861 909.353 248.321C910.834 246.645 912.643 244.291 913.517 241.435C913.992 239.881 914.297 237.835 913.804 235.566C913.289 233.192 912.045 231.242 910.478 229.805C907.736 227.292 904.3 226.59 902.223 226.307C899.812 225.979 897.077 225.967 894.22 226.116C888.469 226.418 880.849 227.46 871.51 229.065C852.767 232.287 825.763 238.016 790.161 245.622L793.922 263.225C829.672 255.587 856.258 249.951 874.559 246.805C883.743 245.227 890.51 244.335 895.162 244.092C897.506 243.969 898.977 244.031 899.795 244.143C900.947 244.299 899.763 244.401 898.315 243.074C897.395 242.231 896.558 240.97 896.214 239.382C895.892 237.9 896.13 236.738 896.304 236.168C896.576 235.281 896.844 235.294 895.864 236.403C894.07 238.433 890.43 241.58 884.404 246.076C872.545 254.923 853.639 267.412 827.918 284.316L837.804 299.358ZM1241.63 1039.87C1125.07 1158.85 1067.77 1267.4 1055.93 1394.41L1073.85 1396.08C1085.2 1274.34 1139.88 1169.45 1254.48 1052.47L1241.63 1039.87ZM1055.93 1394.41C1052.3 1433.33 1049.81 1452.54 1042.48 1468.41C1035.19 1484.19 1022.84 1497.27 996.725 1522.75L1009.29 1535.63C1034.89 1510.67 1049.89 1495.3 1058.82 1475.96C1067.7 1456.74 1070.3 1434.18 1073.85 1396.08L1055.93 1394.41ZM996.725 1522.75C956.652 1561.83 931.657 1605.06 922.932 1650.24C914.194 1695.5 921.926 1741.98 946.074 1787.17L961.949 1778.68C939.542 1736.75 932.729 1694.45 940.606 1653.66C948.497 1612.79 971.278 1572.71 1009.29 1535.63L996.725 1522.75ZM946.074 1787.16C952.306 1798.83 963.292 1812.32 976.929 1826.31C990.673 1840.41 1007.53 1855.45 1025.94 1870.21C1062.7 1899.68 1106.15 1928.43 1144.15 1946.58L1151.91 1930.33C1115.48 1912.94 1073.2 1885.02 1037.2 1856.16C1019.22 1841.75 1002.94 1827.21 989.819 1813.75C976.592 1800.18 966.991 1788.12 961.95 1778.68L946.074 1787.16ZM1144.15 1946.58C1278.79 2010.86 1376.54 2031.39 1577.87 2038.26L1578.48 2020.27C1378.79 2013.45 1283.66 1993.24 1151.91 1930.33L1144.15 1946.58ZM1577.87 2038.26L1756.7 2044.36L1757.32 2026.38L1578.48 2020.27L1577.87 2038.26ZM1771.18 2030.37V1977.8H1753.18V2030.37H1771.18ZM1771.18 1977.8C1771.18 1870.96 1843.21 1769.61 1964.75 1709.94L1956.82 1693.78C1830.9 1755.6 1753.18 1862.31 1753.18 1977.8H1771.18ZM1964.75 1709.94C2004.15 1690.59 2034.92 1685 2110.02 1684.84L2109.98 1666.84C2033.71 1667.01 1999.77 1672.69 1956.82 1693.78L1964.75 1709.94ZM2110.02 1684.84L2202.86 1684.64L2202.83 1666.64L2109.98 1666.84L2110.02 1684.84ZM2216.33 1674.38L2226.66 1637.08L2209.31 1632.28L2198.98 1669.57L2216.33 1674.38ZM2226.66 1637.08C2233.14 1613.67 2241.66 1552.39 2245.78 1500.86L2227.83 1499.42C2223.72 1550.84 2215.3 1610.65 2209.31 1632.28L2226.66 1637.08ZM2245.78 1500.86L2253.24 1407.26L2235.3 1405.83L2227.83 1499.42L2245.78 1500.86ZM1690.43 940.835C1623.37 944.997 1518.41 940.917 1516.07 940.826L1515.37 958.812C1517.52 958.896 1623.41 963.029 1691.54 958.8L1690.43 940.835ZM1515.56 940.818L1344.06 941.268L1344.1 959.268L1515.6 958.817L1515.56 940.818ZM1334.09 945.472L1241.63 1039.88L1254.48 1052.47L1346.95 958.067L1334.09 945.472ZM822.652 1716.75C782.29 1768.14 767.336 1826.56 776.572 1879.51C785.822 1932.56 819.222 1979.33 873.932 2007.28L882.122 1991.25C832.271 1965.78 802.549 1923.7 794.304 1876.42C786.045 1829.06 799.223 1775.72 836.808 1727.87L822.652 1716.75ZM873.931 2007.28C892.951 2017 909.56 2023.12 929.08 2026.23C948.422 2029.31 970.214 2029.37 999.457 2027.51L998.313 2009.54C969.493 2011.38 949.274 2011.22 931.912 2008.45C914.727 2005.72 899.939 2000.36 882.122 1991.25L873.931 2007.28ZM999.458 2027.51C1025.85 2025.82 1046.51 2023.75 1061.2 2020.56C1068.53 2018.97 1074.9 2017 1079.91 2014.37C1084.86 2011.77 1089.56 2007.95 1091.66 2002.15C1093.82 1996.17 1092.43 1990.27 1089.88 1985.28C1087.36 1980.38 1083.28 1975.44 1078.27 1970.44C1068.21 1960.41 1052.54 1948.37 1032 1933.86L1021.61 1948.57C1042.13 1963.06 1056.68 1974.34 1065.56 1983.19C1070.02 1987.63 1072.59 1991.02 1073.86 1993.49C1075.08 1995.88 1074.6 1996.4 1074.73 1996.04C1074.79 1995.86 1074.53 1996.86 1071.54 1998.43C1068.6 1999.97 1064.03 2001.52 1057.39 2002.97C1044.13 2005.84 1024.66 2007.86 998.313 2009.54L999.458 2027.51ZM1032 1933.86C949.831 1875.84 907.975 1823.21 882.207 1746.98L865.155 1752.74C892.403 1833.35 937.069 1888.87 1021.62 1948.57L1032 1933.86ZM882.207 1746.98L865.433 1697.36L848.381 1703.13L865.155 1752.74L882.207 1746.98ZM841.163 1693.2L822.654 1716.75L836.806 1727.87L855.316 1704.32L841.163 1693.2ZM-4060.33 4424.52C-4044.83 4427.5 -4022.4 4427.51 -4009.61 4424.16L-4014.17 4406.75C-4023.73 4409.25 -4043.35 4409.46 -4056.92 4406.85L-4060.33 4424.52ZM-4009.61 4424.16C-4008.01 4423.74 -4006.29 4423.2 -4004.78 4422.46C-4004.05 4422.1 -4002.94 4421.48 -4001.88 4420.5C-4000.89 4419.58 -3999.02 4417.49 -3998.73 4414.18C-3998.42 4410.56 -4000.18 4407.95 -4001.51 4406.6C-4002.75 4405.36 -4004.08 4404.68 -4004.84 4404.33C-4006.42 4403.61 -4008.17 4403.2 -4009.58 4402.92C-4015.32 4401.82 -4025.5 4401.3 -4038.37 4401.36L-4038.28 4419.36C-4025.44 4419.3 -4016.82 4419.86 -4012.98 4420.6C-4012 4420.79 -4011.92 4420.88 -4012.3 4420.71C-4012.46 4420.64 -4013.34 4420.24 -4014.28 4419.29C-4015.32 4418.24 -4016.95 4415.94 -4016.66 4412.63C-4016.4 4409.63 -4014.72 4407.86 -4014.08 4407.27C-4013.38 4406.62 -4012.79 4406.34 -4012.75 4406.32C-4012.64 4406.26 -4012.99 4406.43 -4014.17 4406.75L-4009.61 4424.16ZM-4038.37 4401.36C-4051.01 4401.43 -4060.88 4402.02 -4065.84 4403.32C-4066.57 4403.51 -4067.42 4403.77 -4068.28 4404.14C-4069.02 4404.46 -4070.44 4405.15 -4071.75 4406.46C-4073.23 4407.95 -4075.11 4410.92 -4074.38 4414.86C-4073.78 4418.17 -4071.65 4420.06 -4070.77 4420.76C-4068.96 4422.19 -4066.79 4422.9 -4065.61 4423.27C-4064.1 4423.73 -4062.31 4424.14 -4060.33 4424.52L-4056.92 4406.85C-4058.58 4406.53 -4059.68 4406.26 -4060.35 4406.05C-4061.35 4405.75 -4060.66 4405.81 -4059.62 4406.63C-4059.14 4407.01 -4057.23 4408.6 -4056.68 4411.61C-4056.01 4415.26 -4057.78 4417.94 -4058.98 4419.15C-4060.01 4420.19 -4060.99 4420.6 -4061.12 4420.66C-4061.38 4420.77 -4061.47 4420.78 -4061.28 4420.73C-4058.88 4420.1 -4051.33 4419.43 -4038.28 4419.36L-4038.37 4401.36ZM-3930.88 4425.01C-3896.73 4427.41 -3841.1 4427.41 -3806.96 4425.01L-3808.21 4407.06C-3841.52 4409.39 -3896.3 4409.39 -3929.63 4407.06L-3930.88 4425.01ZM-3806.96 4425.01C-3802.68 4424.72 -3799.26 4424.41 -3796.7 4424.11C-3795.43 4423.96 -3794.27 4423.79 -3793.28 4423.61C-3792.55 4423.47 -3791.05 4423.18 -3789.65 4422.53C-3789.23 4422.33 -3788.56 4421.99 -3787.83 4421.44C-3787.17 4420.93 -3785.91 4419.84 -3785.04 4417.98C-3784.02 4415.78 -3783.87 4413.17 -3784.84 4410.74C-3785.67 4408.67 -3787.03 4407.45 -3787.75 4406.89C-3789.12 4405.82 -3790.51 4405.38 -3790.92 4405.24C-3791.56 4405.04 -3792.16 4404.9 -3792.63 4404.81C-3794.4 4404.46 -3796.89 4404.22 -3799.67 4404.03C-3811.15 4403.22 -3835.21 4402.74 -3868.92 4402.74V4420.74C-3835.16 4420.74 -3811.69 4421.23 -3800.93 4421.98C-3798.15 4422.18 -3796.67 4422.36 -3796.12 4422.47C-3796.01 4422.49 -3796.14 4422.47 -3796.41 4422.38C-3796.46 4422.37 -3797.58 4422.05 -3798.8 4421.1C-3799.44 4420.6 -3800.74 4419.44 -3801.55 4417.43C-3802.5 4415.07 -3802.35 4412.51 -3801.36 4410.38C-3800.52 4408.58 -3799.31 4407.55 -3798.73 4407.11C-3798.09 4406.62 -3797.53 4406.34 -3797.25 4406.21C-3796.39 4405.81 -3795.88 4405.78 -3796.59 4405.92C-3797.03 4406 -3797.76 4406.11 -3798.83 4406.24C-3800.96 4406.49 -3804.06 4406.77 -3808.21 4407.06L-3806.96 4425.01ZM-3868.92 4402.74C-3902.63 4402.74 -3926.69 4403.22 -3938.16 4404.03C-3940.95 4404.22 -3943.44 4404.46 -3945.2 4404.81C-3945.68 4404.9 -3946.28 4405.04 -3946.92 4405.24C-3947.33 4405.38 -3948.71 4405.82 -3950.09 4406.89C-3950.81 4407.45 -3952.16 4408.67 -3952.99 4410.74C-3953.97 4413.16 -3953.82 4415.78 -3952.8 4417.97C-3951.93 4419.84 -3950.66 4420.93 -3950 4421.43C-3949.28 4421.99 -3948.61 4422.33 -3948.19 4422.53C-3946.78 4423.18 -3945.28 4423.47 -3944.56 4423.61C-3943.56 4423.79 -3942.4 4423.96 -3941.13 4424.11C-3938.58 4424.41 -3935.16 4424.72 -3930.88 4425.01L-3929.63 4407.06C-3933.78 4406.77 -3936.87 4406.49 -3939.01 4406.24C-3940.08 4406.11 -3940.8 4406 -3941.25 4405.92C-3941.95 4405.78 -3941.44 4405.81 -3940.59 4406.21C-3940.31 4406.34 -3939.75 4406.62 -3939.1 4407.11C-3938.53 4407.55 -3937.31 4408.58 -3936.48 4410.38C-3935.48 4412.52 -3935.34 4415.07 -3936.29 4417.44C-3937.09 4419.44 -3938.4 4420.6 -3939.04 4421.1C-3940.26 4422.05 -3941.38 4422.37 -3941.42 4422.38C-3941.69 4422.47 -3941.82 4422.49 -3941.71 4422.47C-3941.17 4422.36 -3939.68 4422.18 -3936.91 4421.98C-3926.15 4421.23 -3902.68 4420.74 -3868.92 4420.74V4402.74ZM1691.54 958.8C1701.98 958.152 1711.33 958.25 1720.28 958.497C1729.11 958.741 1737.92 959.147 1746.6 959.052C1764.41 958.856 1782.43 956.566 1805.05 946.86L1797.95 930.319C1777.96 938.897 1762.38 940.877 1746.4 941.053C1738.19 941.143 1730.07 940.76 1720.78 940.504C1711.61 940.251 1701.64 940.138 1690.43 940.835L1691.54 958.8ZM1805.05 946.86C1851.05 927.115 1859.64 895.315 1882.99 857.595L1867.68 848.121C1841.86 889.834 1837.15 913.495 1797.95 930.319L1805.05 946.86ZM1981.28 824.533C2021.99 842.374 2052.01 860.534 2076.7 885.581C2101.4 910.639 2121.29 943.124 2140.9 990.391L2157.53 983.494C2137.4 934.979 2116.41 900.224 2089.52 872.944C2062.61 845.653 2030.33 826.377 1988.5 808.047L1981.28 824.533ZM1882.63 858.138C1883.45 856.997 1884.27 855.872 1885.06 854.767L1870.48 844.222C1869.68 845.329 1868.87 846.446 1868.05 847.578L1882.63 858.138ZM1885.06 854.767C1892.26 844.813 1898.17 836.659 1904.1 830.135C1909.95 823.694 1915.41 819.328 1921.41 816.713C1933.13 811.607 1949.85 811.958 1981.54 824.645L1988.23 807.935C1955.46 794.815 1932.84 792.098 1914.22 800.212C1905.06 804.206 1897.6 810.521 1890.78 818.027C1884.03 825.449 1877.5 834.506 1870.48 844.223L1885.06 854.767ZM2140.8 990.151C2144.74 1000.45 2148.5 1010.23 2152.1 1019.59L2168.9 1013.13C2165.29 1003.76 2161.54 994.008 2157.62 983.734L2140.8 990.151ZM2152.1 1019.59C2179.44 1090.69 2197.62 1137.96 2213.43 1214.27L2231.06 1210.62C2214.92 1132.75 2196.27 1084.29 2168.9 1013.12L2152.1 1019.59ZM2213.49 1214.52C2227.27 1272.76 2229.76 1296.05 2233.36 1329.58L2251.26 1327.65C2247.6 1293.62 2245.01 1269.55 2231 1210.38L2213.49 1214.52ZM2233.36 1329.58C2233.97 1335.2 2234.6 1341.12 2235.33 1347.54L2253.21 1345.52C2252.49 1339.16 2251.86 1333.28 2251.26 1327.65L2233.36 1329.58ZM2235.27 1346.62L2235.27 1347.08L2253.27 1346.92L2253.27 1346.45L2235.27 1346.62ZM2235.27 1347V1347.03H2253.27V1347H2235.27ZM2235.27 1347.14C2235.55 1370.21 2235.7 1383.27 2235.27 1406.38L2253.27 1406.71C2253.71 1383.31 2253.55 1370.02 2253.27 1346.93L2235.27 1347.14ZM634.85 1322.09C634.591 1322.16 634.332 1322.21 634.056 1322.23L632.878 1304.26C631.93 1304.33 630.985 1304.49 630.076 1304.74L634.85 1322.09ZM1344.06 941.268C1340.3 941.278 1336.71 942.792 1334.09 945.472L1346.95 958.067C1346.2 958.832 1345.17 959.265 1344.1 959.268L1344.06 941.268ZM1516.07 940.826C1516.03 940.824 1515.96 940.821 1515.88 940.82C1515.8 940.818 1515.71 940.817 1515.63 940.817C1515.6 940.817 1515.57 940.817 1515.55 940.817C1515.55 940.817 1515.54 940.818 1515.53 940.818C1515.53 940.818 1515.53 940.818 1515.53 940.818C1515.53 940.818 1515.53 940.818 1515.54 940.818C1515.54 940.818 1515.55 940.818 1515.56 940.818L1515.6 958.817C1515.65 958.817 1515.69 958.817 1515.72 958.817C1515.73 958.817 1515.72 958.817 1515.72 958.817C1515.71 958.817 1515.69 958.817 1515.67 958.817C1515.6 958.817 1515.54 958.816 1515.47 958.815C1515.42 958.814 1515.38 958.812 1515.37 958.812L1516.07 940.826ZM2202.86 1684.64C2209.15 1684.62 2214.65 1680.43 2216.33 1674.38L2198.98 1669.57C2199.46 1667.84 2201.03 1666.64 2202.83 1666.64L2202.86 1684.64ZM1756.7 2044.36C1764.62 2044.63 1771.18 2038.29 1771.18 2030.37H1753.18C1753.18 2028.11 1755.06 2026.3 1757.32 2026.38L1756.7 2044.36ZM2239.74 1739.34C2240.32 1737.67 2241.93 1736.58 2243.7 1736.66L2242.87 1754.64C2249.06 1754.93 2254.71 1751.11 2256.74 1745.26L2239.74 1739.34ZM865.433 1697.36C861.871 1686.83 848.036 1684.45 841.163 1693.2L855.316 1704.32C853.352 1706.82 849.399 1706.14 848.381 1703.13L865.433 1697.36ZM1773.8 888.098C1777.49 887.823 1780.98 886.091 1783.43 883.224L1769.74 871.539C1770.45 870.701 1771.43 870.225 1772.46 870.148L1773.8 888.098ZM1782.28 2111.17C1781.25 2111.15 1780.27 2110.73 1779.54 2110L1792.28 2097.28C1789.73 2094.73 1786.3 2093.26 1782.7 2093.18L1782.28 2111.17Z" fill="black" fill-opacity="0.14" mask="url(#path-3-inside-1_302_2)"/>
<path d="M1186.51 1536.29C1158.72 1527.74 1148.73 1497.98 1166.47 1476.59C1175.13 1466.13 1200.91 1459.19 1231.13 1459.19C1291.4 1459.19 1353.26 1503.75 1353.26 1547.19C1353.26 1586.08 1318.13 1592.91 1258.05 1565.69C1230.1 1553.03 1197.9 1539.8 1186.51 1536.29Z" fill="#2D2D2E"/>
<path d="M1169.93 1479.46C1173.35 1475.33 1180.82 1471.29 1191.88 1468.31C1202.74 1465.39 1216.34 1463.69 1231.13 1463.69C1260.22 1463.69 1289.85 1474.47 1312.17 1490.55C1334.64 1506.74 1348.76 1527.56 1348.76 1547.19C1348.76 1556.27 1346.71 1562.94 1343.23 1567.63C1339.78 1572.25 1334.59 1575.4 1327.33 1576.81C1312.47 1579.7 1289.76 1575.11 1259.9 1561.59L1259.9 1561.59C1231.97 1548.94 1199.54 1535.59 1187.84 1531.99L1187.84 1531.99C1175.23 1528.11 1166.95 1519.54 1163.68 1509.82C1160.43 1500.14 1162.04 1488.97 1169.93 1479.46ZM1169.93 1479.46L1166.48 1476.6L1169.93 1479.46Z" stroke="black" stroke-opacity="0.14" stroke-width="9"/>
<path d="M1451.25 1642.58C1485.8 1648.2 1494.11 1644.01 1522.53 1606.71C1540.21 1583.49 1561.07 1564.49 1568.86 1564.49C1576.66 1564.49 1599.81 1585.37 1620.29 1610.9C1654.02 1652.94 1660.47 1656.21 1688.46 1645.55C1722.3 1632.66 1741.94 1648.06 1730.32 1678.39C1713.18 1723.12 1636.9 1718.92 1593.69 1670.88L1574.61 1649.67C1572.74 1647.6 1569.55 1647.45 1567.5 1649.34L1541.11 1673.68C1500.63 1711.04 1475.35 1718.46 1441.42 1702.99C1383.7 1676.64 1390.84 1632.77 1451.25 1642.58Z" fill="#2D2D2E"/>
<path d="M1526.11 1609.44L1526.11 1609.44C1512.02 1627.94 1502.24 1639.21 1491.21 1644.76C1479.86 1650.47 1467.84 1649.84 1450.53 1647.02L1526.11 1609.44ZM1526.11 1609.44C1534.81 1598.01 1544.26 1587.66 1552.44 1580.22C1556.53 1576.49 1560.21 1573.57 1563.26 1571.6C1564.78 1570.62 1566.06 1569.93 1567.09 1569.5C1568.17 1569.05 1568.72 1568.99 1568.86 1568.99C1568.86 1568.99 1568.89 1568.99 1568.98 1569C1569.07 1569.02 1569.19 1569.04 1569.35 1569.08C1569.68 1569.17 1570.12 1569.32 1570.67 1569.56C1571.78 1570.05 1573.17 1570.82 1574.84 1571.91C1578.16 1574.1 1582.24 1577.34 1586.81 1581.46C1595.92 1589.69 1606.67 1601.11 1616.78 1613.72L1616.78 1613.72C1625.21 1624.23 1632.05 1632.45 1637.98 1638.66C1643.9 1644.85 1649.15 1649.29 1654.48 1652C1665.7 1657.7 1676.02 1655.11 1690.06 1649.76L1690.06 1649.76C1706.47 1643.51 1717.86 1644.75 1723.66 1649.3C1729.07 1653.54 1731.62 1662.42 1726.11 1676.78C1718.51 1696.62 1697.56 1706.34 1672.03 1704.93C1646.6 1703.53 1617.84 1691 1597.03 1667.87L1526.11 1609.44Z" stroke="black" stroke-opacity="0.14" stroke-width="9"/>
<path d="M2003.61 1627.91C2011.57 1641.34 2034.75 1653.57 2068.94 1653.57C2087.76 1653.57 2104.58 1651.67 2118.23 1648.32C2131.99 1644.94 2142.11 1640.19 2147.98 1634.8C2150.88 1632.14 2152.6 1629.46 2153.36 1626.85C2154.11 1624.28 2154.03 1621.47 2152.81 1618.29C2150.28 1611.71 2142.84 1603.62 2127.98 1594.67C2092.6 1576.99 2060.55 1575.81 2028.39 1588.8L2003.61 1627.91ZM2003.61 1627.91C1999.77 1621.43 1999.39 1614.65 2002.82 1608.17M2003.61 1627.91L2002.82 1608.17M2002.82 1608.17C2006.37 1601.46 2014.33 1594.48 2028.39 1588.8L2002.82 1608.17Z" fill="#F19596" stroke="#F0898A" stroke-width="9"/>
<path d="M1898.17 809.737L1898.17 809.735C1911.59 800.191 1933.57 795.228 1967.15 804.231C2068.73 846.236 2160.09 943.589 2209.1 1167.96C2211.57 1179.27 2214.07 1190.46 2216.53 1201.48C2226.73 1247.11 2236.3 1289.96 2240.75 1327.56C2246.31 1374.46 2243.67 1411.64 2225.74 1435.42L2225.63 1435.56L2225.54 1435.7C2210.51 1459.13 2183.82 1471.75 2144.95 1482.33C2126.56 1487.34 2105.72 1491.83 2082.43 1496.84L2078.68 1497.65C2053.91 1502.98 2026.51 1508.95 1996.72 1516.73C1996.22 1516.86 1995.9 1516.9 1995.54 1516.91C1988.48 1516.95 1947.63 1516.88 1898.47 1510.23C1849.16 1503.55 1792.18 1490.34 1752.45 1464.46L1752.3 1464.36L1752.13 1464.27C1664.6 1417.06 1594.87 1309.51 1580.16 1198.16C1570.26 1123.17 1587.75 1059.81 1636.44 995.95L1636.56 995.793L1636.67 995.626C1640.35 989.797 1649.93 979.344 1660.15 969.504C1665.19 964.644 1670.28 960.043 1674.7 956.365C1679.23 952.599 1682.75 950.062 1684.76 949.06C1684.76 949.059 1684.77 949.057 1684.77 949.055C1684.79 949.048 1684.84 949.032 1684.93 949.017C1685.08 948.99 1685.3 948.969 1685.63 948.968C1709.69 948.891 1723.45 946.949 1736.31 945.135C1742.41 944.274 1748.31 943.442 1755 942.852L1755.14 942.84L1755.27 942.82C1780.42 939.067 1798.68 933.092 1813.45 923.919C1828.23 914.732 1839.17 902.547 1849.97 886.958C1850.56 886.105 1851.06 885.178 1851.45 884.215C1853.56 879.023 1855.41 874.048 1857.19 869.253C1865.61 846.579 1872.53 827.958 1898.17 809.737Z" fill="#BE9571" stroke="#B4855C" stroke-width="9"/>
<path d="M1055.54 1641.65C1044.61 1633.64 1041.48 1623.48 1044.43 1613.83C1047.5 1603.81 1057.49 1593.16 1075.34 1585.67C1120.5 1576.98 1158.21 1582.32 1179.82 1603.89C1187.29 1611.35 1189.86 1617.21 1189.36 1622.23C1188.85 1627.35 1184.98 1633.34 1175.2 1640.6C1162.04 1650.37 1138.98 1655.75 1115.23 1655.95C1091.47 1656.15 1068.52 1651.14 1055.54 1641.65Z" fill="#F19596" stroke="#F0898A" stroke-width="9"/>
<path d="M1228.26 1000.36C1180.32 1034.32 1158.03 1055.81 1120.77 1107.98C1120.21 1108.76 1119.29 1109.25 1118.33 1109.24C1105.25 1109.02 1098.66 1105.11 1089.71 1091.37C1089.53 1091.1 1089.4 1090.8 1089.32 1090.49C1082.6 1064.48 1083.36 1051.31 1089.37 1030.27C1089.41 1030.1 1089.48 1029.93 1089.56 1029.77C1102.99 1002.31 1113.56 995.079 1132.04 981.257C1158.04 966.001 1174.44 962.46 1204.65 962.966C1204.93 962.97 1205.22 963.017 1205.49 963.101C1230.54 970.908 1230.94 980.698 1229.53 998.143C1229.46 999.027 1228.99 999.846 1228.26 1000.36Z" fill="#FBA1A2" stroke="#272728"/>
<path d="M1860.49 1567.28C1833.58 1578.3 1807.02 1561.63 1807.19 1533.82C1807.28 1520.23 1822.82 1498.51 1846.2 1479.32C1892.81 1441.07 1968.87 1436.27 1996.36 1469.87C2020.98 1499.95 1998.13 1527.53 1934.42 1544.61C1904.8 1552.56 1871.52 1562.76 1860.49 1567.28Z" fill="#2D2D2E"/>
<path d="M1860.3 1566.81L1860.3 1566.81C1846.98 1572.27 1833.78 1570.86 1823.95 1564.69C1814.12 1558.52 1807.61 1547.56 1807.69 1533.83C1807.73 1527.19 1811.56 1518.47 1818.37 1508.96C1825.15 1499.48 1834.85 1489.28 1846.51 1479.71C1869.73 1460.65 1900.3 1449.92 1928.48 1448.15C1956.69 1446.37 1982.37 1453.56 1995.97 1470.18C2002.08 1477.65 2005.21 1484.91 2005.53 1491.86C2005.84 1498.79 2003.36 1505.48 1998.13 1511.79C1987.63 1524.46 1966.12 1535.59 1934.29 1544.13L1934.42 1544.61L1934.29 1544.13C1904.67 1552.07 1871.36 1562.28 1860.3 1566.81Z" stroke="black" stroke-opacity="0.14"/>
</g>
<defs>
<clipPath id="clip0_302_2">
<rect width="2897" height="2316" fill="white"/>
</clipPath>
</defs>
</svg>
