<svg width="48" height="48" viewBox="0 0 48 48" fill="none" xmlns="http://www.w3.org/2000/svg">
<path d="M10 24H10.02M24 24H24.02M38 24H38.02M12 24C12 25.1046 11.1046 26 10 26C8.89543 26 8 25.1046 8 24C8 22.8954 8.89543 22 10 22C11.1046 22 12 22.8954 12 24ZM26 24C26 25.1046 25.1046 26 24 26C22.8954 26 22 25.1046 22 24C22 22.8954 22.8954 22 24 22C25.1046 22 26 22.8954 26 24ZM40 24C40 25.1046 39.1046 26 38 26C36.8954 26 36 25.1046 36 24C36 22.8954 36.8954 22 38 22C39.1046 22 40 22.8954 40 24Z" stroke="white" stroke-width="2" stroke-linecap="round" stroke-linejoin="round"/>
</svg>
