<svg width="200" height="36" viewBox="0 0 200 36" fill="none" xmlns="http://www.w3.org/2000/svg">
<path d="M43.9964 12.0898V29H47.5355V23.668H50.6995C54.262 23.668 56.7347 21.3477 56.7347 17.8789C56.7347 14.3984 54.3441 12.0898 50.8753 12.0898H43.9964ZM47.5355 14.8906H49.9378C51.9652 14.8906 53.137 15.9688 53.137 17.8906C53.137 19.8242 51.9534 20.9023 49.9261 20.9023H47.5355V14.8906ZM64.6031 29.2695C68.4 29.2695 70.8258 26.8438 70.8258 22.707C70.8258 18.6289 68.3648 16.168 64.6031 16.168C60.8414 16.168 58.3805 18.6406 58.3805 22.707C58.3805 26.832 60.8063 29.2695 64.6031 29.2695ZM64.6031 26.6562C62.9156 26.6562 61.8492 25.2383 61.8492 22.7188C61.8492 20.2227 62.9391 18.7812 64.6031 18.7812C66.2672 18.7812 67.3453 20.2227 67.3453 22.7188C67.3453 25.2383 66.2789 26.6562 64.6031 26.6562ZM73.3153 29H76.7372V21.9805C76.7372 20.2109 77.7216 19.1797 79.4091 19.1797C79.9013 19.1797 80.37 19.2617 80.6513 19.3789V16.3672C80.4169 16.2969 80.077 16.2383 79.6786 16.2383C78.202 16.2383 77.1356 17.1055 76.6903 18.6992H76.62V16.4375H73.3153V29ZM83.6916 13.543V16.4375H81.922V19.0156H83.6916V25.6133C83.6916 28.0625 84.84 29.0469 87.7931 29.0469C88.4845 29.0469 89.0705 28.9883 89.422 28.9062V26.3867C89.2111 26.4219 88.8947 26.4453 88.59 26.4453C87.5822 26.4453 87.1134 25.9883 87.1134 25.0273V19.0156H89.4338V16.4375H87.1134V13.543H83.6916ZM92.9428 29H96.3647V19.0156H98.7788V16.4961H96.2827V15.6641C96.2827 14.7734 96.7748 14.2812 97.8998 14.2812C98.2397 14.2812 98.5795 14.3047 98.8256 14.3516V12.0898C98.4272 12.0078 97.7123 11.9375 97.0795 11.9375C94.103 11.9375 92.9428 13.0859 92.9428 15.5469V16.4961H91.2319V19.0156H92.9428V29ZM106.717 29.2695C110.514 29.2695 112.94 26.8438 112.94 22.707C112.94 18.6289 110.479 16.168 106.717 16.168C102.956 16.168 100.495 18.6406 100.495 22.707C100.495 26.832 102.921 29.2695 106.717 29.2695ZM106.717 26.6562C105.03 26.6562 103.964 25.2383 103.964 22.7188C103.964 20.2227 105.053 18.7812 106.717 18.7812C108.382 18.7812 109.46 20.2227 109.46 22.7188C109.46 25.2383 108.393 26.6562 106.717 26.6562ZM115.512 29H118.934V12.0898H115.512V29ZM122.021 29H125.443V16.4375H122.021V29ZM123.732 15.0547C124.763 15.0547 125.56 14.2695 125.56 13.2852C125.56 12.2891 124.763 11.5156 123.732 11.5156C122.7 11.5156 121.904 12.2891 121.904 13.2852C121.904 14.2695 122.7 15.0547 123.732 15.0547ZM134.213 29.2695C138.01 29.2695 140.436 26.8438 140.436 22.707C140.436 18.6289 137.975 16.168 134.213 16.168C130.452 16.168 127.991 18.6406 127.991 22.707C127.991 26.832 130.417 29.2695 134.213 29.2695ZM134.213 26.6562C132.526 26.6562 131.46 25.2383 131.46 22.7188C131.46 20.2227 132.549 18.7812 134.213 18.7812C135.878 18.7812 136.956 20.2227 136.956 22.7188C136.956 25.2383 135.889 26.6562 134.213 26.6562ZM163.392 29V12.0898H159.853V18.957H152.235V12.0898H148.696V29H152.235V21.875H159.853V29H163.392ZM178.233 16.4375H174.811V23.6328C174.811 25.2969 173.862 26.3867 172.338 26.3867C170.827 26.3867 169.995 25.4961 169.995 23.8203V16.4375H166.573V24.5352C166.573 27.4648 168.377 29.2344 171.096 29.2344C172.995 29.2344 174.237 28.3203 174.858 26.7383H174.928V29H178.233V16.4375ZM188.644 29.1992C191.808 29.1992 193.742 26.7617 193.742 22.7188C193.742 18.6641 191.797 16.2383 188.633 16.2383C186.84 16.2383 185.445 17.1289 184.754 18.6172H184.683V12.0898H181.261V29H184.636V26.8438H184.707C185.398 28.3086 186.804 29.1992 188.644 29.1992ZM187.461 18.9805C189.16 18.9805 190.238 20.4336 190.238 22.7188C190.238 25.0156 189.172 26.4453 187.461 26.4453C185.797 26.4453 184.672 24.9922 184.672 22.7188C184.672 20.4688 185.808 18.9805 187.461 18.9805Z" fill="#6EDED0"/>
<path d="M34.5 22.0097C29.559 24.0097 24.1581 25.1111 18.5 25.1111C12.8419 25.1111 7.44097 24.0097 2.5 22.0097M25.6111 9.11111V5.55555C25.6111 3.59188 24.0192 2 22.0556 2H14.9444C12.9808 2 11.3889 3.59188 11.3889 5.55555V9.11111M18.5 19.7778H18.5178M6.05555 34H30.9444C32.9081 34 34.5 32.4081 34.5 30.4444V12.6667C34.5 10.703 32.9081 9.11111 30.9444 9.11111H6.05555C4.09188 9.11111 2.5 10.703 2.5 12.6667V30.4444C2.5 32.4081 4.09188 34 6.05555 34Z" stroke="#6EDED0" stroke-width="3" stroke-linecap="round" stroke-linejoin="round"/>
</svg>
