<svg width="24" height="24" viewBox="0 0 24 24" fill="none" xmlns="http://www.w3.org/2000/svg">
<path fill-rule="evenodd" clip-rule="evenodd" d="M12.0016 3.6001C12.6643 3.6001 13.2016 4.13736 13.2016 4.8001V10.8001H19.2016C19.8643 10.8001 20.4016 11.3374 20.4016 12.0001C20.4016 12.6628 19.8643 13.2001 19.2016 13.2001H13.2016V19.2001C13.2016 19.8628 12.6643 20.4001 12.0016 20.4001C11.3388 20.4001 10.8016 19.8628 10.8016 19.2001V13.2001H4.80156C4.13882 13.2001 3.60156 12.6628 3.60156 12.0001C3.60156 11.3374 4.13882 10.8001 4.80156 10.8001L10.8016 10.8001V4.8001C10.8016 4.13736 11.3388 3.6001 12.0016 3.6001Z" fill="white"/>
</svg>
