<svg width="886" height="506" viewBox="0 0 886 506" fill="none" xmlns="http://www.w3.org/2000/svg">
<g filter="url(#filter0_d_134_7)">
<path d="M5 114H873V466C873 479.807 861.807 491 848 491H30C16.1929 491 5 479.807 5 466V114Z" fill="#2B3E50"/>
<path d="M5 27C5 13.1929 16.1929 2 30 2H848C861.807 2 873 13.1929 873 27V114H5V27Z" fill="#37495A"/>
<circle cx="62" cy="58" r="17" fill="#FF5F57"/>
<circle cx="167" cy="58" r="17" fill="#28C840"/>
<circle cx="114" cy="58" r="17" fill="#FEBC2E"/>
<path d="M305.258 55.65C301.208 55.65 298.913 59.025 297.113 62.76L301.073 64.56C302.243 62.4 303.323 61.05 305.078 61.05C307.778 61.05 309.668 65.55 313.988 65.55C317.993 65.55 320.243 62.58 322.133 58.395L318.173 56.64C316.958 58.935 315.878 60.15 314.168 60.15C311.468 60.15 309.668 55.65 305.258 55.65ZM338.81 36.48H335.165V43.185C329.585 43.77 326.12 47.1 326.12 52.005C326.12 56.235 328.685 58.98 335.165 61.14V70.5C332.51 70.32 330.44 69.24 328.415 67.485L324.995 71.445C327.2 73.56 330.71 75.405 335.165 75.72V82.29H338.81V75.585C344.885 74.82 348.215 70.86 348.215 65.82C348.215 60.42 344.84 57.99 338.81 56.01V48.135C340.655 48.27 342.545 48.945 344.21 50.34L347.675 46.695C345.47 44.85 342.5 43.455 338.81 43.14V36.48ZM335.165 48.18V54.615C332.825 53.535 332.465 52.635 332.465 51.15C332.465 49.71 333.365 48.495 335.165 48.18ZM338.81 62.58C341.06 63.705 341.6 64.92 341.6 66.675C341.6 68.7 340.655 69.96 338.81 70.365V62.58ZM366.198 43.005C357.963 43.005 351.618 48.9 351.618 59.34C351.618 70.05 357.648 75.765 366.108 75.765C370.923 75.765 374.298 73.875 376.593 71.535L373.263 67.26C371.508 68.655 369.618 70.05 366.513 70.05C362.238 70.05 359.268 66.855 359.268 59.34C359.268 51.69 362.418 48.495 366.378 48.495C368.808 48.495 370.878 49.395 372.588 50.79L376.188 46.425C373.578 44.265 370.698 43.005 366.198 43.005ZM400.335 68.115V58.755C400.335 53.265 397.005 50.295 389.895 50.295C387.24 50.295 383.685 50.925 380.58 52.095L382.2 56.82C384.585 56.01 387.24 55.56 388.77 55.56C391.83 55.56 393.495 56.73 393.495 59.25V60.105H390.3C382.92 60.105 378.645 63.075 378.645 68.25C378.645 72.66 381.795 75.765 386.745 75.765C389.715 75.765 392.73 74.73 394.575 72.525C395.7 74.505 397.635 75.405 400.425 75.675L401.91 70.995C400.785 70.59 400.335 69.915 400.335 68.115ZM389.175 70.68C387.15 70.68 385.98 69.6 385.98 67.755C385.98 65.415 387.78 64.155 391.74 64.155H393.495V68.07C392.595 69.735 390.705 70.68 389.175 70.68ZM428.713 73.605L426.373 69.06C425.248 69.69 423.853 70.14 422.188 70.14C419.803 70.14 418.768 69.24 418.768 66.855V56.01H425.743L426.463 51.105H418.768V45.075L411.658 45.93V51.105H406.663V56.01H411.658V66.855C411.658 72.345 414.628 75.765 420.883 75.765C424.168 75.765 426.823 74.82 428.713 73.605ZM456.865 59.25C456.865 46.38 449.26 43.815 441.25 43.815H433.375V75H441.79C449.53 75 456.865 71.94 456.865 59.25ZM449.26 59.25C449.26 67.44 446.425 69.645 442.33 69.645H440.755V49.17H442.33C446.245 49.17 449.26 50.88 449.26 59.25ZM467.333 65.145H482.813C482.903 64.425 482.948 63.39 482.948 62.58C482.948 54.885 478.583 50.295 471.743 50.295C464.228 50.295 460.088 56.01 460.088 63.075C460.088 70.5 464.318 75.765 472.508 75.765C476.558 75.765 479.798 74.415 482.048 72.48L479.213 68.61C477.323 69.825 475.253 70.59 473.093 70.59C470.033 70.59 467.828 69.06 467.333 65.145ZM471.743 55.065C474.758 55.065 475.973 57.36 476.018 60.825H467.243C467.558 56.865 469.223 55.065 471.743 55.065ZM510.695 51.105H503.495L498.635 69.555L494 51.105H486.305L494.36 75H502.73L510.695 51.105ZM521.297 65.145H536.777C536.867 64.425 536.912 63.39 536.912 62.58C536.912 54.885 532.547 50.295 525.707 50.295C518.192 50.295 514.052 56.01 514.052 63.075C514.052 70.5 518.282 75.765 526.472 75.765C530.522 75.765 533.762 74.415 536.012 72.48L533.177 68.61C531.287 69.825 529.217 70.59 527.057 70.59C523.997 70.59 521.792 69.06 521.297 65.145ZM525.707 55.065C528.722 55.065 529.937 57.36 529.982 60.825H521.207C521.522 56.865 523.187 55.065 525.707 55.065ZM554.58 41.61H540.45V46.47H547.47V66.585C547.47 72.21 550.08 75.765 555.84 75.765C558.9 75.765 561.15 75.045 562.725 74.19L561.06 69.42C560.07 69.825 558.9 70.14 557.64 70.14C555.75 70.14 554.58 69.42 554.58 67.485V41.61ZM579.447 50.295C572.112 50.295 567.837 55.425 567.837 63.03C567.837 71.085 572.112 75.765 579.447 75.765C586.782 75.765 591.057 70.995 591.057 62.985C591.057 55.335 586.827 50.295 579.447 50.295ZM579.447 55.56C582.372 55.56 583.722 57.81 583.722 62.985C583.722 68.34 582.372 70.545 579.447 70.545C576.522 70.545 575.172 68.34 575.172 63.03C575.172 57.81 576.522 55.56 579.447 55.56ZM609.31 50.295C607.06 50.295 604.63 51.33 602.695 53.76L602.38 51.105H596.08V84.99L603.19 84.225V73.29C604.63 74.91 606.52 75.765 608.86 75.765C614.665 75.765 618.04 70.365 618.04 62.985C618.04 55.2 615.52 50.295 609.31 50.295ZM607.105 55.56C609.355 55.56 610.705 57.135 610.705 63.075C610.705 68.475 609.22 70.545 606.7 70.545C605.215 70.545 604.18 69.87 603.19 68.43V58.35C604.225 56.595 605.44 55.56 607.105 55.56ZM629.227 65.145H644.707C644.797 64.425 644.842 63.39 644.842 62.58C644.842 54.885 640.477 50.295 633.637 50.295C626.122 50.295 621.982 56.01 621.982 63.075C621.982 70.5 626.212 75.765 634.402 75.765C638.452 75.765 641.692 74.415 643.942 72.48L641.107 68.61C639.217 69.825 637.147 70.59 634.987 70.59C631.927 70.59 629.722 69.06 629.227 65.145ZM633.637 55.065C636.652 55.065 637.867 57.36 637.912 60.825H629.137C629.452 56.865 631.117 55.065 633.637 55.065ZM668.27 50.385C664.445 50.385 661.835 52.365 660.125 56.46L658.865 51.105H650.27V55.83H653.42V70.23H650.27V75H665.255V70.23H660.53V63.39C661.61 59.835 663.725 57.18 666.425 56.73V61.095H670.925L672.23 51.105C671.105 50.655 669.89 50.385 668.27 50.385Z" fill="white"/>
</g>
<defs>
<filter id="filter0_d_134_7" x="0.5" y="0" width="885" height="506" filterUnits="userSpaceOnUse" color-interpolation-filters="sRGB">
<feFlood flood-opacity="0" result="BackgroundImageFix"/>
<feColorMatrix in="SourceAlpha" type="matrix" values="0 0 0 0 0 0 0 0 0 0 0 0 0 0 0 0 0 0 127 0" result="hardAlpha"/>
<feMorphology radius="0.5" operator="dilate" in="SourceAlpha" result="effect1_dropShadow_134_7"/>
<feOffset dx="4" dy="6.5"/>
<feGaussianBlur stdDeviation="4"/>
<feColorMatrix type="matrix" values="0 0 0 0 0 0 0 0 0 0 0 0 0 0 0 0 0 0 0.25 0"/>
<feBlend mode="normal" in2="BackgroundImageFix" result="effect1_dropShadow_134_7"/>
<feBlend mode="normal" in="SourceGraphic" in2="effect1_dropShadow_134_7" result="shape"/>
</filter>
</defs>
</svg>
