<svg width="28" height="26" viewBox="0 0 28 26" fill="none" xmlns="http://www.w3.org/2000/svg">
<path d="M23.334 4.38464H4.66732C3.38048 4.38464 2.33398 5.35064 2.33398 6.53849V19.4616C2.33398 20.6494 3.38048 21.6154 4.66732 21.6154H23.334C24.6208 21.6154 25.6673 20.6494 25.6673 19.4616V6.53849C25.6673 5.35064 24.6208 4.38464 23.334 4.38464ZM23.334 6.53849V7.0888L14.0007 13.7905L4.66732 7.08987V6.53849H23.334ZM4.66732 19.4616V9.81664L13.2843 16.0036C13.4886 16.1517 13.7409 16.2322 14.0007 16.2322C14.2604 16.2322 14.5127 16.1517 14.717 16.0036L23.334 9.81664L23.3363 19.4616H4.66732Z" fill="white"/>
</svg>
