<svg width="28" height="28" viewBox="0 0 28 28" fill="none" xmlns="http://www.w3.org/2000/svg">
<path d="M20.6584 14.3419C20.5501 14.2334 20.4216 14.1474 20.28 14.0887C20.1385 14.03 19.9868 13.9998 19.8336 13.9998C19.6803 13.9998 19.5286 14.03 19.3871 14.0887C19.2456 14.1474 19.117 14.2334 19.0087 14.3419L17.1491 16.2015C16.2869 15.9449 14.6781 15.3615 13.6584 14.3419C12.6387 13.3222 12.0554 11.7134 11.7987 10.8512L13.6584 8.99153C13.7668 8.88328 13.8529 8.75471 13.9116 8.61317C13.9702 8.47164 14.0005 8.31992 14.0005 8.1667C14.0005 8.01348 13.9702 7.86176 13.9116 7.72022C13.8529 7.57869 13.7668 7.45012 13.6584 7.34187L8.99173 2.6752C8.88347 2.56676 8.7549 2.48073 8.61337 2.42204C8.47184 2.36334 8.32012 2.33313 8.16689 2.33313C8.01367 2.33313 7.86195 2.36334 7.72042 2.42204C7.57888 2.48073 7.45031 2.56676 7.34206 2.6752L4.17806 5.8392C3.73473 6.28253 3.48506 6.89153 3.49439 7.51337C3.52123 9.1747 3.96106 14.945 8.50873 19.4927C13.0564 24.0404 18.8267 24.479 20.4892 24.507H20.5219C21.1379 24.507 21.7201 24.2644 22.1611 23.8234L25.3251 20.6594C25.4335 20.5511 25.5195 20.4225 25.5782 20.281C25.6369 20.1395 25.6671 19.9878 25.6671 19.8345C25.6671 19.6813 25.6369 19.5296 25.5782 19.3881C25.5195 19.2465 25.4335 19.118 25.3251 19.0097L20.6584 14.3419ZM20.5102 22.1725C19.0542 22.148 14.0726 21.7572 10.1584 17.8419C6.23139 13.9149 5.85106 8.9157 5.82773 7.48887L8.16689 5.1497L11.1839 8.1667L9.67539 9.6752C9.53827 9.81222 9.43744 9.98126 9.38204 10.167C9.32663 10.3528 9.31839 10.5494 9.35806 10.7392C9.38606 10.8734 10.0709 14.0549 12.0076 15.9915C13.9442 17.9282 17.1257 18.613 17.2599 18.641C17.4495 18.6818 17.6464 18.6742 17.8323 18.619C18.0183 18.5637 18.1873 18.4626 18.3239 18.3249L19.8336 16.8164L22.8506 19.8334L20.5102 22.1725V22.1725Z" fill="white"/>
</svg>
