<svg width="15" height="8" viewBox="0 0 15 8" fill="none" xmlns="http://www.w3.org/2000/svg">
<path d="M6.57568 8H5.29199V4.45508H1.67188V8H0.382812V0.147461H1.67188V3.35938H5.29199V0.147461H6.57568V8ZM10.8618 0.147461C11.5386 0.147461 12.0972 0.229818 12.5376 0.394531C12.9816 0.559245 13.311 0.809896 13.5259 1.14648C13.7443 1.48307 13.8535 1.91097 13.8535 2.43018C13.8535 2.81689 13.7819 3.14632 13.6387 3.41846C13.4954 3.69059 13.3075 3.91618 13.0747 4.09521C12.842 4.27425 12.5931 4.41748 12.3281 4.5249L14.5571 8H13.1016L11.2056 4.85254H9.94336V8H8.6543V0.147461H10.8618ZM10.7759 1.22168H9.94336V3.78906H10.835C11.4329 3.78906 11.8662 3.67806 12.1348 3.45605C12.4069 3.23405 12.543 2.90641 12.543 2.47314C12.543 2.01839 12.3979 1.69613 12.1079 1.50635C11.8215 1.31657 11.3774 1.22168 10.7759 1.22168Z" fill="#F99D1D"/>
</svg>
